<?xml version="1.0" encoding="UTF-8"?>
<svg xmlns="http://www.w3.org/2000/svg" width="970" height="305.33330108333655" viewBox="350 110 970 305.33330108333655">
<g class="edges">
<g class="edge"><path d="M435 199.1666717529297L435 219.1666717529297L 435,269.66668701171875Q 435,277.66668701171875 443,277.66668701171875L451.16668701171875 277.66668701171875L471.16668701171875 277.66668701171875" fill="none" stroke="#7F7F7F" stroke-width="1.5"/><g transform="translate(471.16668701171875, 277.66668701171875) rotate(0) translate(5, 0)"><path d="M -5 -2.5 L -1 -0.5 Q 0 0 -1 0.5 L -5 2.5 Q -6 3 -6 2 L -6 -2 Q -6 -3 -5 -2.5 Z" fill="#7F7F7F"/></g></g>
<g class="edge"><path d="M573.8333740234375 277.66668701171875L593.8333740234375 277.66668701171875L635.0000305175781 277.66668701171875L635.0000305175781 277.66668701171875L676.1666870117188 277.66668701171875L696.1666870117188 277.66668701171875" fill="none" stroke="#7F7F7F" stroke-width="1.5"/><g transform="translate(696.1666870117188, 277.66668701171875) rotate(0) translate(5, 0)"><path d="M -5 -2.5 L -1 -0.5 Q 0 0 -1 0.5 L -5 2.5 Q -6 3 -6 2 L -6 -2 Q -6 -3 -5 -2.5 Z" fill="#7F7F7F"/></g></g>
<g class="edge"><path d="M798.8333740234375 277.66668701171875L818.8333740234375 277.66668701171875L 862,277.66668701171875Q 870,277.66668701171875 870,285.66668701171875L870 301.16668701171875L870 321.16668701171875" fill="none" stroke="#7F7F7F" stroke-width="1.5"/><g transform="translate(870, 321.16668701171875) rotate(90) translate(5, 0)"><path d="M -5 -2.5 L -1 -0.5 Q 0 0 -1 0.5 L -5 2.5 Q -6 3 -6 2 L -6 -2 Q -6 -3 -5 -2.5 Z" fill="#7F7F7F"/></g></g>
<g class="edge"><path d="M573.8333740234375 277.66668701171875L593.8333740234375 277.66668701171875L 622,277.66668701171875Q 630,277.66668701171875 630,285.66668701171875L630 301.16668701171875L630 321.16668701171875" fill="none" stroke="#7F7F7F" stroke-width="1.5"/><g transform="translate(630, 321.16668701171875) rotate(90) translate(5, 0)"><path d="M -5 -2.5 L -1 -0.5 Q 0 0 -1 0.5 L -5 2.5 Q -6 3 -6 2 L -6 -2 Q -6 -3 -5 -2.5 Z" fill="#7F7F7F"/></g></g>
<g class="edge"><path d="M573.8333740234375 277.66668701171875L593.8333740234375 277.66668701171875L 627.0000305175781,277.66668701171875Q 635.0000305175781,277.66668701171875 635.0000305175781,269.66668701171875L 635.0000305175781,173.55209350585938Q 635.0000305175781,165.55209350585938 643.0000305175781,165.55209350585938L676.1666870117188 165.55209350585938L696.1666870117188 165.55209350585938" fill="none" stroke="#7F7F7F" stroke-width="1.5"/><g transform="translate(696.1666870117188, 165.55209350585938) rotate(0) translate(5, 0)"><path d="M -5 -2.5 L -1 -0.5 Q 0 0 -1 0.5 L -5 2.5 Q -6 3 -6 2 L -6 -2 Q -6 -3 -5 -2.5 Z" fill="#7F7F7F"/></g></g>
<g class="edge"><path d="M798.8333740234375 277.66668701171875L 810.8333740234375,277.66668701171875Q 818.8333740234375,277.66668701171875 818.8333740234375,269.66668701171875L 818.8333740234375,237.05209350585938Q 818.8333740234375,229.05209350585938 810.8333740234375,229.05209350585938L 684.1666870117188,229.05209350585938Q 676.1666870117188,229.05209350585938 676.1666870117188,221.05209350585938L 676.1666870117188,188.4375Q 676.1666870117188,180.4375 684.1666870117188,180.4375L696.1666870117188 180.4375" fill="none" stroke="#7F7F7F" stroke-width="1.5"/><g transform="translate(696.1666870117188, 180.4375) rotate(0) translate(5, 0)"><path d="M -5 -2.5 L -1 -0.5 Q 0 0 -1 0.5 L -5 2.5 Q -6 3 -6 2 L -6 -2 Q -6 -3 -5 -2.5 Z" fill="#7F7F7F"/></g></g>
<g class="edge"><path d="M798.8333740234375 173L818.8333740234375 173L 1102,173Q 1110,173 1110,181L1110 301.16668701171875L1110 321.16668701171875" fill="none" stroke="#7F7F7F" stroke-width="1.5"/><g transform="translate(1110, 321.16668701171875) rotate(90) translate(5, 0)"><path d="M -5 -2.5 L -1 -0.5 Q 0 0 -1 0.5 L -5 2.5 Q -6 3 -6 2 L -6 -2 Q -6 -3 -5 -2.5 Z" fill="#7F7F7F"/></g></g>
</g>
<g class="events">
<g class="event" data-id="1455e789-9e7d-4139-8a4e-896feecff3d3">
<rect x="957" y="237" width="56" height="56" rx="4" fill="#1c1c26" transform="rotate(45 985 265)"/>
<rect x="957" y="237" width="56" height="56" rx="4" fill="none" stroke="#7F7F7F" stroke-width="1" transform="rotate(45 985 265)"/>
<text x="985" y="261" text-anchor="middle" dominant-baseline="middle" fill="#0070C0" font-size="10" font-weight="600" font-family="system-ui, -apple-system, sans-serif">Bounce</text>
<text x="985" y="273" text-anchor="middle" dominant-baseline="middle" fill="#808090" font-size="8" font-family="system-ui, -apple-system, sans-serif">ZeroCrossing</text>
</g>
<g class="event" data-id="eda13d11-f264-4861-ba54-e17c48884905">
<rect x="1212" y="237" width="56" height="56" rx="4" fill="#1c1c26" transform="rotate(45 1240 265)"/>
<rect x="1212" y="237" width="56" height="56" rx="4" fill="none" stroke="#7F7F7F" stroke-width="1" transform="rotate(45 1240 265)"/>
<text x="1240" y="261" text-anchor="middle" dominant-baseline="middle" fill="#0070C0" font-size="10" font-weight="600" font-family="system-ui, -apple-system, sans-serif">Zeno</text>
<text x="1240" y="273" text-anchor="middle" dominant-baseline="middle" fill="#808090" font-size="8" font-family="system-ui, -apple-system, sans-serif">Condition</text>
</g>
</g>
<g class="nodes">
<g class="node" data-id="1642f372-0929-4a73-a786-11a5a9b2ce0b">
<rect x="705" y="255" width="89.99992982941177" height="45.33330108333658" rx="4" fill="#1c1c26"/>
<rect x="705" y="255" width="89.99992982941177" height="45.33330108333658" rx="4" fill="none" stroke="#7F7F7F" stroke-width="1"/>
<text x="749.9999649147059" y="273.6666505416683" text-anchor="middle" dominant-baseline="middle" fill="#0070C0" font-size="10" font-weight="600" font-family="system-ui, -apple-system, sans-serif">pos</text>
<text x="749.9999649147059" y="285.6666505416683" text-anchor="middle" dominant-baseline="middle" fill="#808090" font-size="8" font-family="system-ui, -apple-system, sans-serif">Integrator</text>
<g transform="translate(700.67, 273.67)">
	<path d="M 1.00 0.00 L 5.00 0.00 Q 6.00 0.00 6.71 0.71 L 9.29 3.29 Q 10.00 4.00 9.29 4.71 L 6.71 7.29 Q 6.00 8.00 5.00 8.00 L 1.00 8.00 Q 0.00 8.00 0.00 7.00 L 0.00 1.00 Q 0.00 0.00 1.00 0.00 Z" fill="#7F7F7F"/>
	<path d="M 0.80 0.00 L 3.79 0.00 Q 4.59 0.00 5.15 0.57 L 7.02 2.43 Q 7.59 3.00 7.02 3.57 L 5.15 5.43 Q 4.59 6.00 3.79 6.00 L 0.80 6.00 Q 0.00 6.00 0.00 5.20 L 0.00 0.80 Q 0.00 0.00 0.80 0.00 Z" fill="#1c1c26" transform="translate(1, 1)"/>
</g>
<g transform="translate(789.33, 273.67)">
	<path d="M 1.00 0.00 L 5.00 0.00 Q 6.00 0.00 6.71 0.71 L 9.29 3.29 Q 10.00 4.00 9.29 4.71 L 6.71 7.29 Q 6.00 8.00 5.00 8.00 L 1.00 8.00 Q 0.00 8.00 0.00 7.00 L 0.00 1.00 Q 0.00 0.00 1.00 0.00 Z" fill="#7F7F7F"/>
	<path d="M 0.80 0.00 L 3.79 0.00 Q 4.59 0.00 5.15 0.57 L 7.02 2.43 Q 7.59 3.00 7.02 3.57 L 5.15 5.43 Q 4.59 6.00 3.79 6.00 L 0.80 6.00 Q 0.00 6.00 0.00 5.20 L 0.00 0.80 Q 0.00 0.00 0.80 0.00 Z" fill="#1c1c26" transform="translate(1, 1)"/>
</g>
</g>
<g class="node" data-id="d6b8ebf1-173b-4f71-a160-d86545a80cb9">
<rect x="480" y="255" width="89.99997000733845" height="45.33330108333658" rx="4" fill="#1c1c26"/>
<rect x="480" y="255" width="89.99997000733845" height="45.33330108333658" rx="4" fill="none" stroke="#7F7F7F" stroke-width="1"/>
<text x="524.9999850036693" y="273.6666505416683" text-anchor="middle" dominant-baseline="middle" fill="#0070C0" font-size="10" font-weight="600" font-family="system-ui, -apple-system, sans-serif">vel</text>
<text x="524.9999850036693" y="285.6666505416683" text-anchor="middle" dominant-baseline="middle" fill="#808090" font-size="8" font-family="system-ui, -apple-system, sans-serif">Integrator</text>
<g transform="translate(475.67, 273.67)">
	<path d="M 1.00 0.00 L 5.00 0.00 Q 6.00 0.00 6.71 0.71 L 9.29 3.29 Q 10.00 4.00 9.29 4.71 L 6.71 7.29 Q 6.00 8.00 5.00 8.00 L 1.00 8.00 Q 0.00 8.00 0.00 7.00 L 0.00 1.00 Q 0.00 0.00 1.00 0.00 Z" fill="#7F7F7F"/>
	<path d="M 0.80 0.00 L 3.79 0.00 Q 4.59 0.00 5.15 0.57 L 7.02 2.43 Q 7.59 3.00 7.02 3.57 L 5.15 5.43 Q 4.59 6.00 3.79 6.00 L 0.80 6.00 Q 0.00 6.00 0.00 5.20 L 0.00 0.80 Q 0.00 0.00 0.80 0.00 Z" fill="#1c1c26" transform="translate(1, 1)"/>
</g>
<g transform="translate(564.33, 273.67)">
	<path d="M 1.00 0.00 L 5.00 0.00 Q 6.00 0.00 6.71 0.71 L 9.29 3.29 Q 10.00 4.00 9.29 4.71 L 6.71 7.29 Q 6.00 8.00 5.00 8.00 L 1.00 8.00 Q 0.00 8.00 0.00 7.00 L 0.00 1.00 Q 0.00 0.00 1.00 0.00 Z" fill="#7F7F7F"/>
	<path d="M 0.80 0.00 L 3.79 0.00 Q 4.59 0.00 5.15 0.57 L 7.02 2.43 Q 7.59 3.00 7.02 3.57 L 5.15 5.43 Q 4.59 6.00 3.79 6.00 L 0.80 6.00 Q 0.00 6.00 0.00 5.20 L 0.00 0.80 Q 0.00 0.00 0.80 0.00 Z" fill="#1c1c26" transform="translate(1, 1)"/>
</g>
</g>
<g class="node" data-id="c76c21f3-21cd-453e-9437-8e8af946d1c7">
<rect x="825" y="330" width="89.99992982941177" height="45.33330108333658" rx="20" fill="#1c1c26"/>
<rect x="825" y="330" width="89.99992982941177" height="45.33330108333658" rx="20" fill="none" stroke="#7F7F7F" stroke-width="1"/>
<text x="869.9999649147059" y="348.6666505416683" text-anchor="middle" dominant-baseline="middle" fill="#0070C0" font-size="10" font-weight="600" font-family="system-ui, -apple-system, sans-serif">x(t)</text>
<text x="869.9999649147059" y="360.6666505416683" text-anchor="middle" dominant-baseline="middle" fill="#808090" font-size="8" font-family="system-ui, -apple-system, sans-serif">Scope</text>
<g transform="translate(866.00, 325.67)">
	<path d="M 1.00 0.00 L 7.00 0.00 Q 8.00 0.00 8.00 1.00 L 8.00 5.00 Q 8.00 6.00 7.29 6.71 L 4.71 9.29 Q 4.00 10.00 3.29 9.29 L 0.71 6.71 Q 0.00 6.00 0.00 5.00 L 0.00 1.00 Q 0.00 0.00 1.00 0.00 Z" fill="#7F7F7F"/>
	<path d="M 0.80 0.00 L 5.20 0.00 Q 6.00 0.00 6.00 0.80 L 6.00 3.79 Q 6.00 4.59 5.43 5.15 L 3.57 7.02 Q 3.00 7.59 2.43 7.02 L 0.57 5.15 Q 0.00 4.59 0.00 3.79 L 0.00 0.80 Q 0.00 0.00 0.80 0.00 Z" fill="#1c1c26" transform="translate(1, 1)"/>
</g>
</g>
<g class="node" data-id="49a2f6d3-5327-485a-8f1b-b98a3d425a57">
<rect x="390" y="150" width="89.99992982941177" height="45.33330108333658" rx="20" fill="#1c1c26"/>
<rect x="390" y="150" width="89.99992982941177" height="45.33330108333658" rx="20" fill="none" stroke="#7F7F7F" stroke-width="1"/>
<text x="434.99996491470586" y="168.66665054166828" text-anchor="middle" dominant-baseline="middle" fill="#0070C0" font-size="10" font-weight="600" font-family="system-ui, -apple-system, sans-serif">gravity</text>
<text x="434.99996491470586" y="180.66665054166828" text-anchor="middle" dominant-baseline="middle" fill="#808090" font-size="8" font-family="system-ui, -apple-system, sans-serif">Constant</text>
<g transform="translate(431.00, 189.67)">
	<path d="M 1.00 0.00 L 7.00 0.00 Q 8.00 0.00 8.00 1.00 L 8.00 5.00 Q 8.00 6.00 7.29 6.71 L 4.71 9.29 Q 4.00 10.00 3.29 9.29 L 0.71 6.71 Q 0.00 6.00 0.00 5.00 L 0.00 1.00 Q 0.00 0.00 1.00 0.00 Z" fill="#7F7F7F"/>
	<path d="M 0.80 0.00 L 5.20 0.00 Q 6.00 0.00 6.00 0.80 L 6.00 3.79 Q 6.00 4.59 5.43 5.15 L 3.57 7.02 Q 3.00 7.59 2.43 7.02 L 0.57 5.15 Q 0.00 4.59 0.00 3.79 L 0.00 0.80 Q 0.00 0.00 0.80 0.00 Z" fill="#1c1c26" transform="translate(1, 1)"/>
</g>
</g>
<g class="node" data-id="d73713d6-eb61-442e-a69b-c4d168180ef4">
<rect x="585" y="330" width="89.99992982941177" height="45.33330108333658" rx="20" fill="#1c1c26"/>
<rect x="585" y="330" width="89.99992982941177" height="45.33330108333658" rx="20" fill="none" stroke="#7F7F7F" stroke-width="1"/>
<text x="629.9999649147059" y="348.6666505416683" text-anchor="middle" dominant-baseline="middle" fill="#0070C0" font-size="10" font-weight="600" font-family="system-ui, -apple-system, sans-serif">v(t)</text>
<text x="629.9999649147059" y="360.6666505416683" text-anchor="middle" dominant-baseline="middle" fill="#808090" font-size="8" font-family="system-ui, -apple-system, sans-serif">Scope</text>
<g transform="translate(626.00, 325.67)">
	<path d="M 1.00 0.00 L 7.00 0.00 Q 8.00 0.00 8.00 1.00 L 8.00 5.00 Q 8.00 6.00 7.29 6.71 L 4.71 9.29 Q 4.00 10.00 3.29 9.29 L 0.71 6.71 Q 0.00 6.00 0.00 5.00 L 0.00 1.00 Q 0.00 0.00 1.00 0.00 Z" fill="#7F7F7F"/>
	<path d="M 0.80 0.00 L 5.20 0.00 Q 6.00 0.00 6.00 0.80 L 6.00 3.79 Q 6.00 4.59 5.43 5.15 L 3.57 7.02 Q 3.00 7.59 2.43 7.02 L 0.57 5.15 Q 0.00 4.59 0.00 3.79 L 0.00 0.80 Q 0.00 0.00 0.80 0.00 Z" fill="#1c1c26" transform="translate(1, 1)"/>
</g>
</g>
<g class="node" data-id="db488fa8-9004-40f7-a724-bc9846dd2f85">
<rect x="705" y="150" width="89.99992982941177" height="45.99997743839063" rx="4" fill="#1c1c26"/>
<rect x="705" y="150" width="89.99992982941177" height="45.99997743839063" rx="4" fill="none" stroke="#7F7F7F" stroke-width="1"/>
<text x="749.9999649147059" y="168.9999887191953" text-anchor="middle" dominant-baseline="middle" fill="#0070C0" font-size="10" font-weight="600" font-family="system-ui, -apple-system, sans-serif">total energy</text>
<text x="749.9999649147059" y="180.9999887191953" text-anchor="middle" dominant-baseline="middle" fill="#808090" font-size="8" font-family="system-ui, -apple-system, sans-serif">Function</text>
<g transform="translate(700.67, 161.55)">
	<path d="M 1.00 0.00 L 5.00 0.00 Q 6.00 0.00 6.71 0.71 L 9.29 3.29 Q 10.00 4.00 9.29 4.71 L 6.71 7.29 Q 6.00 8.00 5.00 8.00 L 1.00 8.00 Q 0.00 8.00 0.00 7.00 L 0.00 1.00 Q 0.00 0.00 1.00 0.00 Z" fill="#7F7F7F"/>
	<path d="M 0.80 0.00 L 3.79 0.00 Q 4.59 0.00 5.15 0.57 L 7.02 2.43 Q 7.59 3.00 7.02 3.57 L 5.15 5.43 Q 4.59 6.00 3.79 6.00 L 0.80 6.00 Q 0.00 6.00 0.00 5.20 L 0.00 0.80 Q 0.00 0.00 0.80 0.00 Z" fill="#1c1c26" transform="translate(1, 1)"/>
</g>
<g transform="translate(700.67, 176.44)">
	<path d="M 1.00 0.00 L 5.00 0.00 Q 6.00 0.00 6.71 0.71 L 9.29 3.29 Q 10.00 4.00 9.29 4.71 L 6.71 7.29 Q 6.00 8.00 5.00 8.00 L 1.00 8.00 Q 0.00 8.00 0.00 7.00 L 0.00 1.00 Q 0.00 0.00 1.00 0.00 Z" fill="#7F7F7F"/>
	<path d="M 0.80 0.00 L 3.79 0.00 Q 4.59 0.00 5.15 0.57 L 7.02 2.43 Q 7.59 3.00 7.02 3.57 L 5.15 5.43 Q 4.59 6.00 3.79 6.00 L 0.80 6.00 Q 0.00 6.00 0.00 5.20 L 0.00 0.80 Q 0.00 0.00 0.80 0.00 Z" fill="#1c1c26" transform="translate(1, 1)"/>
</g>
<g transform="translate(789.33, 169.00)">
	<path d="M 1.00 0.00 L 5.00 0.00 Q 6.00 0.00 6.71 0.71 L 9.29 3.29 Q 10.00 4.00 9.29 4.71 L 6.71 7.29 Q 6.00 8.00 5.00 8.00 L 1.00 8.00 Q 0.00 8.00 0.00 7.00 L 0.00 1.00 Q 0.00 0.00 1.00 0.00 Z" fill="#7F7F7F"/>
	<path d="M 0.80 0.00 L 3.79 0.00 Q 4.59 0.00 5.15 0.57 L 7.02 2.43 Q 7.59 3.00 7.02 3.57 L 5.15 5.43 Q 4.59 6.00 3.79 6.00 L 0.80 6.00 Q 0.00 6.00 0.00 5.20 L 0.00 0.80 Q 0.00 0.00 0.80 0.00 Z" fill="#1c1c26" transform="translate(1, 1)"/>
</g>
</g>
<g class="node" data-id="78f720fe-8774-42c3-be6b-5a4ef30e00df">
<rect x="1065" y="330" width="89.99992982941177" height="45.33330108333658" rx="20" fill="#1c1c26"/>
<rect x="1065" y="330" width="89.99992982941177" height="45.33330108333658" rx="20" fill="none" stroke="#7F7F7F" stroke-width="1"/>
<text x="1109.999964914706" y="348.6666505416683" text-anchor="middle" dominant-baseline="middle" fill="#0070C0" font-size="10" font-weight="600" font-family="system-ui, -apple-system, sans-serif">E(t)</text>
<text x="1109.999964914706" y="360.6666505416683" text-anchor="middle" dominant-baseline="middle" fill="#808090" font-size="8" font-family="system-ui, -apple-system, sans-serif">Scope</text>
<g transform="translate(1106.00, 325.67)">
	<path d="M 1.00 0.00 L 7.00 0.00 Q 8.00 0.00 8.00 1.00 L 8.00 5.00 Q 8.00 6.00 7.29 6.71 L 4.71 9.29 Q 4.00 10.00 3.29 9.29 L 0.71 6.71 Q 0.00 6.00 0.00 5.00 L 0.00 1.00 Q 0.00 0.00 1.00 0.00 Z" fill="#7F7F7F"/>
	<path d="M 0.80 0.00 L 5.20 0.00 Q 6.00 0.00 6.00 0.80 L 6.00 3.79 Q 6.00 4.59 5.43 5.15 L 3.57 7.02 Q 3.00 7.59 2.43 7.02 L 0.57 5.15 Q 0.00 4.59 0.00 3.79 L 0.00 0.80 Q 0.00 0.00 0.80 0.00 Z" fill="#1c1c26" transform="translate(1, 1)"/>
</g>
</g>
</g>
</svg>