<?xml version="1.0" encoding="UTF-8"?>
<svg xmlns="http://www.w3.org/2000/svg" width="870.000164919906" height="380.00006956300274" viewBox="629.9999021327314 179.99996907032755 870.000164919906 380.00006956300274">
<g class="edges">
<g class="edge"><path d="M1293.8333333333333 340L1313.8333333333333 340L1322.5 340L1322.5 340L1331.1666666666667 340L1351.1666666666667 340" fill="none" stroke="#7F7F7F" stroke-width="1.5"/><g transform="translate(1351.1666259765625, 340) rotate(0) translate(5, 0)"><path d="M -5 -2.5 L -1 -0.5 Q 0 0 -1 0.5 L -5 2.5 Q -6 3 -6 2 L -6 -2 Q -6 -3 -5 -2.5 Z" fill="#7F7F7F"/></g></g>
<g class="edge"><path d="M1143.8333333333333 330L1163.8333333333333 330L1163.8333333333333 330L1161.1666666666667 330L1161.1666666666667 330L1181.1666666666667 330" fill="none" stroke="#7F7F7F" stroke-width="1.5"/><g transform="translate(1181.1666259765625, 330) rotate(0) translate(5, 0)"><path d="M -5 -2.5 L -1 -0.5 Q 0 0 -1 0.5 L -5 2.5 Q -6 3 -6 2 L -6 -2 Q -6 -3 -5 -2.5 Z" fill="#7F7F7F"/></g></g>
<g class="edge"><path d="M963.8333333333334 330L983.8333333333334 330L997.5 330L997.5 330L1011.1666666666667 330L1031.1666666666667 330" fill="none" stroke="#7F7F7F" stroke-width="1.5"/><g transform="translate(1031.1666259765625, 330) rotate(0) translate(5, 0)"><path d="M -5 -2.5 L -1 -0.5 Q 0 0 -1 0.5 L -5 2.5 Q -6 3 -6 2 L -6 -2 Q -6 -3 -5 -2.5 Z" fill="#7F7F7F"/></g></g>
<g class="edge"><path d="M773.8333333333334 440L793.8333333333334 440L 804.5,440Q 812.5,440 812.5,432L 812.5,328Q 812.5,320 820.5,320L831.1666666666666 320L851.1666666666666 320" fill="none" stroke="#7F7F7F" stroke-width="1.5"/><g transform="translate(851.1666870117188, 320) rotate(0) translate(5, 0)"><path d="M -5 -2.5 L -1 -0.5 Q 0 0 -1 0.5 L -5 2.5 Q -6 3 -6 2 L -6 -2 Q -6 -3 -5 -2.5 Z" fill="#7F7F7F"/></g></g>
<g class="edge"><path d="M1463.8333333333333 340L 1475.8333333333333,340Q 1483.8333333333333,340 1483.8333333333333,348L 1483.8333333333333,402Q 1483.8333333333333,410 1475.8333333333333,410L1408.8333333333333 410L1388.8333333333333 410" fill="none" stroke="#7F7F7F" stroke-width="1.5"/><g transform="translate(1388.8333740234375, 410) rotate(180) translate(5, 0)"><path d="M -5 -2.5 L -1 -0.5 Q 0 0 -1 0.5 L -5 2.5 Q -6 3 -6 2 L -6 -2 Q -6 -3 -5 -2.5 Z" fill="#7F7F7F"/></g></g>
<g class="edge"><path d="M1276.1666666666667 420L1256.1666666666667 420L 1038,420Q 1030,420 1030,428L1030 451.1666666666667L1030 471.1666666666667" fill="none" stroke="#7F7F7F" stroke-width="1.5"/><g transform="translate(1030, 471.1666564941406) rotate(90) translate(5, 0)"><path d="M -5 -2.5 L -1 -0.5 Q 0 0 -1 0.5 L -5 2.5 Q -6 3 -6 2 L -6 -2 Q -6 -3 -5 -2.5 Z" fill="#7F7F7F"/></g></g>
<g class="edge"><path d="M1276.1666666666667 400L1256.1666666666667 400L 1169.1666666666667,400Q 1161.1666666666667,400 1161.1666666666667,392L 1161.1666666666667,358Q 1161.1666666666667,350 1169.1666666666667,350L1181.1666666666667 350" fill="none" stroke="#7F7F7F" stroke-width="1.5"/><g transform="translate(1181.1666259765625, 350) rotate(0) translate(5, 0)"><path d="M -5 -2.5 L -1 -0.5 Q 0 0 -1 0.5 L -5 2.5 Q -6 3 -6 2 L -6 -2 Q -6 -3 -5 -2.5 Z" fill="#7F7F7F"/></g></g>
<g class="edge"><path d="M1276.1666666666667 420L1256.1666666666667 420L 839.1666666666666,420Q 831.1666666666666,420 831.1666666666666,412L 831.1666666666666,348Q 831.1666666666666,340 839.1666666666666,340L851.1666666666666 340" fill="none" stroke="#7F7F7F" stroke-width="1.5"/><g transform="translate(851.1666870117188, 340) rotate(0) translate(5, 0)"><path d="M -5 -2.5 L -1 -0.5 Q 0 0 -1 0.5 L -5 2.5 Q -6 3 -6 2 L -6 -2 Q -6 -3 -5 -2.5 Z" fill="#7F7F7F"/></g></g>
<g class="edge"><path d="M963.8333333333334 330L983.8333333333334 330L 992,330Q 1000,330 1000,322L1000 288.83333333333337L1000 268.83333333333337" fill="none" stroke="#7F7F7F" stroke-width="1.5"/><g transform="translate(1000, 268.8333435058594) rotate(-90) translate(5, 0)"><path d="M -5 -2.5 L -1 -0.5 Q 0 0 -1 0.5 L -5 2.5 Q -6 3 -6 2 L -6 -2 Q -6 -3 -5 -2.5 Z" fill="#7F7F7F"/></g></g>
<g class="edge"><path d="M1143.8333333333333 330L 1155.8333333333333,330Q 1163.8333333333333,330 1163.8333333333333,322L 1163.8333333333333,296.83333333333337Q 1163.8333333333333,288.83333333333337 1155.8333333333333,288.83333333333337L 1028,288.83333333333337Q 1020,288.83333333333337 1020,280.83333333333337L1020 268.83333333333337" fill="none" stroke="#7F7F7F" stroke-width="1.5"/><g transform="translate(1020, 268.8333435058594) rotate(-90) translate(5, 0)"><path d="M -5 -2.5 L -1 -0.5 Q 0 0 -1 0.5 L -5 2.5 Q -6 3 -6 2 L -6 -2 Q -6 -3 -5 -2.5 Z" fill="#7F7F7F"/></g></g>
<g class="edge"><path d="M1293.8333333333333 340L1313.8333333333333 340L 1322,340Q 1330,340 1330,332L1330 288.83333333333337L1330 268.83333333333337" fill="none" stroke="#7F7F7F" stroke-width="1.5"/><g transform="translate(1330, 268.8333435058594) rotate(-90) translate(5, 0)"><path d="M -5 -2.5 L -1 -0.5 Q 0 0 -1 0.5 L -5 2.5 Q -6 3 -6 2 L -6 -2 Q -6 -3 -5 -2.5 Z" fill="#7F7F7F"/></g></g>
<g class="edge"><path d="M1463.8333333333333 340L 1475.8333333333333,340Q 1483.8333333333333,340 1483.8333333333333,332L 1483.8333333333333,296.83333333333337Q 1483.8333333333333,288.83333333333337 1475.8333333333333,288.83333333333337L 1358,288.83333333333337Q 1350,288.83333333333337 1350,280.83333333333337L1350 268.83333333333337" fill="none" stroke="#7F7F7F" stroke-width="1.5"/><g transform="translate(1350, 268.8333435058594) rotate(-90) translate(5, 0)"><path d="M -5 -2.5 L -1 -0.5 Q 0 0 -1 0.5 L -5 2.5 Q -6 3 -6 2 L -6 -2 Q -6 -3 -5 -2.5 Z" fill="#7F7F7F"/></g></g>
<g class="edge"><path d="M773.8333333333334 440L793.8333333333334 440L 1004.4166666666666,440Q 1010,440 1010,445.58333333333337L1010 451.1666666666667L1010 471.1666666666667" fill="none" stroke="#7F7F7F" stroke-width="1.5"/><g transform="translate(1010, 471.1666564941406) rotate(90) translate(5, 0)"><path d="M -5 -2.5 L -1 -0.5 Q 0 0 -1 0.5 L -5 2.5 Q -6 3 -6 2 L -6 -2 Q -6 -3 -5 -2.5 Z" fill="#7F7F7F"/></g></g>
</g>
<g class="nodes">
<g class="node" data-id="7c855194-3fcf-4d00-acbd-0e3051f5703c">
<rect x="669.9999021327314" y="419.999989613415" width="100.00019573453719" height="40.00002077317002" rx="20" fill="#1c1c26"/>
<rect x="669.9999021327314" y="419.999989613415" width="100.00019573453719" height="40.00002077317002" rx="20" fill="none" stroke="#7F7F7F" stroke-width="1"/>
<text x="720" y="436" text-anchor="middle" dominant-baseline="middle" fill="#0070C0" font-size="10" font-weight="600" font-family="system-ui, -apple-system, sans-serif">Setpoint</text>
<text x="720" y="448" text-anchor="middle" dominant-baseline="middle" fill="#808090" font-size="8" font-family="system-ui, -apple-system, sans-serif">StepSource</text>
<g transform="translate(764.33, 436.00)">
	<path d="M 1.00 0.00 L 5.00 0.00 Q 6.00 0.00 6.71 0.71 L 9.29 3.29 Q 10.00 4.00 9.29 4.71 L 6.71 7.29 Q 6.00 8.00 5.00 8.00 L 1.00 8.00 Q 0.00 8.00 0.00 7.00 L 0.00 1.00 Q 0.00 0.00 1.00 0.00 Z" fill="#7F7F7F"/>
	<path d="M 0.80 0.00 L 3.79 0.00 Q 4.59 0.00 5.15 0.57 L 7.02 2.43 Q 7.59 3.00 7.02 3.57 L 5.15 5.43 Q 4.59 6.00 3.79 6.00 L 0.80 6.00 Q 0.00 6.00 0.00 5.20 L 0.00 0.80 Q 0.00 0.00 0.80 0.00 Z" fill="#1c1c26" transform="translate(1, 1)"/>
</g>
</g>
<g class="node" data-id="f7ffd92f-16eb-4760-8285-8ed7fafc90fd">
<rect x="1039.9999329473626" y="309.99996136666977" width="100.00013410527484" height="40.0000772666605" rx="4" fill="#1c1c26"/>
<rect x="1039.9999329473626" y="309.99996136666977" width="100.00013410527484" height="40.0000772666605" rx="4" fill="none" stroke="#7F7F7F" stroke-width="1"/>
<text x="1090" y="326" text-anchor="middle" dominant-baseline="middle" fill="#0070C0" font-size="10" font-weight="600" font-family="system-ui, -apple-system, sans-serif">PI-1</text>
<text x="1090" y="338" text-anchor="middle" dominant-baseline="middle" fill="#808090" font-size="8" font-family="system-ui, -apple-system, sans-serif">PID</text>
<g transform="translate(1035.67, 326.00)">
	<path d="M 1.00 0.00 L 5.00 0.00 Q 6.00 0.00 6.71 0.71 L 9.29 3.29 Q 10.00 4.00 9.29 4.71 L 6.71 7.29 Q 6.00 8.00 5.00 8.00 L 1.00 8.00 Q 0.00 8.00 0.00 7.00 L 0.00 1.00 Q 0.00 0.00 1.00 0.00 Z" fill="#7F7F7F"/>
	<path d="M 0.80 0.00 L 3.79 0.00 Q 4.59 0.00 5.15 0.57 L 7.02 2.43 Q 7.59 3.00 7.02 3.57 L 5.15 5.43 Q 4.59 6.00 3.79 6.00 L 0.80 6.00 Q 0.00 6.00 0.00 5.20 L 0.00 0.80 Q 0.00 0.00 0.80 0.00 Z" fill="#1c1c26" transform="translate(1, 1)"/>
</g>
<g transform="translate(1134.33, 326.00)">
	<path d="M 1.00 0.00 L 5.00 0.00 Q 6.00 0.00 6.71 0.71 L 9.29 3.29 Q 10.00 4.00 9.29 4.71 L 6.71 7.29 Q 6.00 8.00 5.00 8.00 L 1.00 8.00 Q 0.00 8.00 0.00 7.00 L 0.00 1.00 Q 0.00 0.00 1.00 0.00 Z" fill="#7F7F7F"/>
	<path d="M 0.80 0.00 L 3.79 0.00 Q 4.59 0.00 5.15 0.57 L 7.02 2.43 Q 7.59 3.00 7.02 3.57 L 5.15 5.43 Q 4.59 6.00 3.79 6.00 L 0.80 6.00 Q 0.00 6.00 0.00 5.20 L 0.00 0.80 Q 0.00 0.00 0.80 0.00 Z" fill="#1c1c26" transform="translate(1, 1)"/>
</g>
</g>
<g class="node" data-id="b449fb93-54e1-4cfd-862b-cbb66d919d91">
<rect x="859.9999329473626" y="309.99996136666977" width="100.00013410527484" height="40.0000772666605" rx="4" fill="#1c1c26"/>
<rect x="859.9999329473626" y="309.99996136666977" width="100.00013410527484" height="40.0000772666605" rx="4" fill="none" stroke="#7F7F7F" stroke-width="1"/>
<text x="910" y="326" text-anchor="middle" dominant-baseline="middle" fill="#0070C0" font-size="10" font-weight="600" font-family="system-ui, -apple-system, sans-serif">Error-1</text>
<text x="910" y="338" text-anchor="middle" dominant-baseline="middle" fill="#808090" font-size="8" font-family="system-ui, -apple-system, sans-serif">Adder</text>
<g transform="translate(855.67, 316.00)">
	<path d="M 1.00 0.00 L 5.00 0.00 Q 6.00 0.00 6.71 0.71 L 9.29 3.29 Q 10.00 4.00 9.29 4.71 L 6.71 7.29 Q 6.00 8.00 5.00 8.00 L 1.00 8.00 Q 0.00 8.00 0.00 7.00 L 0.00 1.00 Q 0.00 0.00 1.00 0.00 Z" fill="#7F7F7F"/>
	<path d="M 0.80 0.00 L 3.79 0.00 Q 4.59 0.00 5.15 0.57 L 7.02 2.43 Q 7.59 3.00 7.02 3.57 L 5.15 5.43 Q 4.59 6.00 3.79 6.00 L 0.80 6.00 Q 0.00 6.00 0.00 5.20 L 0.00 0.80 Q 0.00 0.00 0.80 0.00 Z" fill="#1c1c26" transform="translate(1, 1)"/>
</g>
<g transform="translate(855.67, 336.00)">
	<path d="M 1.00 0.00 L 5.00 0.00 Q 6.00 0.00 6.71 0.71 L 9.29 3.29 Q 10.00 4.00 9.29 4.71 L 6.71 7.29 Q 6.00 8.00 5.00 8.00 L 1.00 8.00 Q 0.00 8.00 0.00 7.00 L 0.00 1.00 Q 0.00 0.00 1.00 0.00 Z" fill="#7F7F7F"/>
	<path d="M 0.80 0.00 L 3.79 0.00 Q 4.59 0.00 5.15 0.57 L 7.02 2.43 Q 7.59 3.00 7.02 3.57 L 5.15 5.43 Q 4.59 6.00 3.79 6.00 L 0.80 6.00 Q 0.00 6.00 0.00 5.20 L 0.00 0.80 Q 0.00 0.00 0.80 0.00 Z" fill="#1c1c26" transform="translate(1, 1)"/>
</g>
<g transform="translate(954.33, 326.00)">
	<path d="M 1.00 0.00 L 5.00 0.00 Q 6.00 0.00 6.71 0.71 L 9.29 3.29 Q 10.00 4.00 9.29 4.71 L 6.71 7.29 Q 6.00 8.00 5.00 8.00 L 1.00 8.00 Q 0.00 8.00 0.00 7.00 L 0.00 1.00 Q 0.00 0.00 1.00 0.00 Z" fill="#7F7F7F"/>
	<path d="M 0.80 0.00 L 3.79 0.00 Q 4.59 0.00 5.15 0.57 L 7.02 2.43 Q 7.59 3.00 7.02 3.57 L 5.15 5.43 Q 4.59 6.00 3.79 6.00 L 0.80 6.00 Q 0.00 6.00 0.00 5.20 L 0.00 0.80 Q 0.00 0.00 0.80 0.00 Z" fill="#1c1c26" transform="translate(1, 1)"/>
</g>
</g>
<g class="node" data-id="c5fc3645-c55b-4478-8125-665418379764">
<rect x="1189.9999329473626" y="319.99997549004235" width="100.00013410527484" height="40.00004901991526" rx="4" fill="#1c1c26"/>
<rect x="1189.9999329473626" y="319.99997549004235" width="100.00013410527484" height="40.00004901991526" rx="4" fill="none" stroke="#7F7F7F" stroke-width="1"/>
<text x="1240" y="336" text-anchor="middle" dominant-baseline="middle" fill="#0070C0" font-size="10" font-weight="600" font-family="system-ui, -apple-system, sans-serif">Error-2</text>
<text x="1240" y="348" text-anchor="middle" dominant-baseline="middle" fill="#808090" font-size="8" font-family="system-ui, -apple-system, sans-serif">Adder</text>
<g transform="translate(1185.67, 326.00)">
	<path d="M 1.00 0.00 L 5.00 0.00 Q 6.00 0.00 6.71 0.71 L 9.29 3.29 Q 10.00 4.00 9.29 4.71 L 6.71 7.29 Q 6.00 8.00 5.00 8.00 L 1.00 8.00 Q 0.00 8.00 0.00 7.00 L 0.00 1.00 Q 0.00 0.00 1.00 0.00 Z" fill="#7F7F7F"/>
	<path d="M 0.80 0.00 L 3.79 0.00 Q 4.59 0.00 5.15 0.57 L 7.02 2.43 Q 7.59 3.00 7.02 3.57 L 5.15 5.43 Q 4.59 6.00 3.79 6.00 L 0.80 6.00 Q 0.00 6.00 0.00 5.20 L 0.00 0.80 Q 0.00 0.00 0.80 0.00 Z" fill="#1c1c26" transform="translate(1, 1)"/>
</g>
<g transform="translate(1185.67, 346.00)">
	<path d="M 1.00 0.00 L 5.00 0.00 Q 6.00 0.00 6.71 0.71 L 9.29 3.29 Q 10.00 4.00 9.29 4.71 L 6.71 7.29 Q 6.00 8.00 5.00 8.00 L 1.00 8.00 Q 0.00 8.00 0.00 7.00 L 0.00 1.00 Q 0.00 0.00 1.00 0.00 Z" fill="#7F7F7F"/>
	<path d="M 0.80 0.00 L 3.79 0.00 Q 4.59 0.00 5.15 0.57 L 7.02 2.43 Q 7.59 3.00 7.02 3.57 L 5.15 5.43 Q 4.59 6.00 3.79 6.00 L 0.80 6.00 Q 0.00 6.00 0.00 5.20 L 0.00 0.80 Q 0.00 0.00 0.80 0.00 Z" fill="#1c1c26" transform="translate(1, 1)"/>
</g>
<g transform="translate(1284.33, 336.00)">
	<path d="M 1.00 0.00 L 5.00 0.00 Q 6.00 0.00 6.71 0.71 L 9.29 3.29 Q 10.00 4.00 9.29 4.71 L 6.71 7.29 Q 6.00 8.00 5.00 8.00 L 1.00 8.00 Q 0.00 8.00 0.00 7.00 L 0.00 1.00 Q 0.00 0.00 1.00 0.00 Z" fill="#7F7F7F"/>
	<path d="M 0.80 0.00 L 3.79 0.00 Q 4.59 0.00 5.15 0.57 L 7.02 2.43 Q 7.59 3.00 7.02 3.57 L 5.15 5.43 Q 4.59 6.00 3.79 6.00 L 0.80 6.00 Q 0.00 6.00 0.00 5.20 L 0.00 0.80 Q 0.00 0.00 0.80 0.00 Z" fill="#1c1c26" transform="translate(1, 1)"/>
</g>
</g>
<g class="node" data-id="096ba23a-fd02-43ca-aabe-92a83db7b610">
<rect x="1359.9999329473626" y="319.99997549004235" width="100.00013410527484" height="40.00004901991526" rx="4" fill="#1c1c26"/>
<rect x="1359.9999329473626" y="319.99997549004235" width="100.00013410527484" height="40.00004901991526" rx="4" fill="none" stroke="#7F7F7F" stroke-width="1"/>
<text x="1410" y="336" text-anchor="middle" dominant-baseline="middle" fill="#0070C0" font-size="10" font-weight="600" font-family="system-ui, -apple-system, sans-serif">PI-2</text>
<text x="1410" y="348" text-anchor="middle" dominant-baseline="middle" fill="#808090" font-size="8" font-family="system-ui, -apple-system, sans-serif">PID</text>
<g transform="translate(1355.67, 336.00)">
	<path d="M 1.00 0.00 L 5.00 0.00 Q 6.00 0.00 6.71 0.71 L 9.29 3.29 Q 10.00 4.00 9.29 4.71 L 6.71 7.29 Q 6.00 8.00 5.00 8.00 L 1.00 8.00 Q 0.00 8.00 0.00 7.00 L 0.00 1.00 Q 0.00 0.00 1.00 0.00 Z" fill="#7F7F7F"/>
	<path d="M 0.80 0.00 L 3.79 0.00 Q 4.59 0.00 5.15 0.57 L 7.02 2.43 Q 7.59 3.00 7.02 3.57 L 5.15 5.43 Q 4.59 6.00 3.79 6.00 L 0.80 6.00 Q 0.00 6.00 0.00 5.20 L 0.00 0.80 Q 0.00 0.00 0.80 0.00 Z" fill="#1c1c26" transform="translate(1, 1)"/>
</g>
<g transform="translate(1454.33, 336.00)">
	<path d="M 1.00 0.00 L 5.00 0.00 Q 6.00 0.00 6.71 0.71 L 9.29 3.29 Q 10.00 4.00 9.29 4.71 L 6.71 7.29 Q 6.00 8.00 5.00 8.00 L 1.00 8.00 Q 0.00 8.00 0.00 7.00 L 0.00 1.00 Q 0.00 0.00 1.00 0.00 Z" fill="#7F7F7F"/>
	<path d="M 0.80 0.00 L 3.79 0.00 Q 4.59 0.00 5.15 0.57 L 7.02 2.43 Q 7.59 3.00 7.02 3.57 L 5.15 5.43 Q 4.59 6.00 3.79 6.00 L 0.80 6.00 Q 0.00 6.00 0.00 5.20 L 0.00 0.80 Q 0.00 0.00 0.80 0.00 Z" fill="#1c1c26" transform="translate(1, 1)"/>
</g>
</g>
<g class="node" data-id="40ac8e75-a709-4434-9001-63bc1d73106c">
<rect x="1279.9999329473626" y="389.99997549004235" width="100.00013410527484" height="40.00004901991526" rx="4" fill="#1c1c26"/>
<rect x="1279.9999329473626" y="389.99997549004235" width="100.00013410527484" height="40.00004901991526" rx="4" fill="none" stroke="#7F7F7F" stroke-width="1" stroke-dasharray="4 2"/>
<text x="1330" y="406" text-anchor="middle" dominant-baseline="middle" fill="#0070C0" font-size="10" font-weight="600" font-family="system-ui, -apple-system, sans-serif">Plant</text>
<text x="1330" y="418" text-anchor="middle" dominant-baseline="middle" fill="#808090" font-size="8" font-family="system-ui, -apple-system, sans-serif">Subsystem</text>
<g transform="translate(1374.33, 406.00)">
	<path d="M 5.00 0.00 L 9.00 0.00 Q 10.00 0.00 10.00 1.00 L 10.00 7.00 Q 10.00 8.00 9.00 8.00 L 5.00 8.00 Q 4.00 8.00 3.29 7.29 L 0.71 4.71 Q 0.00 4.00 0.71 3.29 L 3.29 0.71 Q 4.00 0.00 5.00 0.00 Z" fill="#7F7F7F"/>
	<path d="M 4.21 0.00 L 7.20 0.00 Q 8.00 0.00 8.00 0.80 L 8.00 5.20 Q 8.00 6.00 7.20 6.00 L 4.21 6.00 Q 3.41 6.00 2.85 5.43 L 0.98 3.57 Q 0.41 3.00 0.98 2.43 L 2.85 0.57 Q 3.41 0.00 4.21 0.00 Z" fill="#1c1c26" transform="translate(1, 1)"/>
</g>
<g transform="translate(1275.67, 396.00)">
	<path d="M 5.00 0.00 L 9.00 0.00 Q 10.00 0.00 10.00 1.00 L 10.00 7.00 Q 10.00 8.00 9.00 8.00 L 5.00 8.00 Q 4.00 8.00 3.29 7.29 L 0.71 4.71 Q 0.00 4.00 0.71 3.29 L 3.29 0.71 Q 4.00 0.00 5.00 0.00 Z" fill="#7F7F7F"/>
	<path d="M 4.21 0.00 L 7.20 0.00 Q 8.00 0.00 8.00 0.80 L 8.00 5.20 Q 8.00 6.00 7.20 6.00 L 4.21 6.00 Q 3.41 6.00 2.85 5.43 L 0.98 3.57 Q 0.41 3.00 0.98 2.43 L 2.85 0.57 Q 3.41 0.00 4.21 0.00 Z" fill="#1c1c26" transform="translate(1, 1)"/>
</g>
<g transform="translate(1275.67, 416.00)">
	<path d="M 5.00 0.00 L 9.00 0.00 Q 10.00 0.00 10.00 1.00 L 10.00 7.00 Q 10.00 8.00 9.00 8.00 L 5.00 8.00 Q 4.00 8.00 3.29 7.29 L 0.71 4.71 Q 0.00 4.00 0.71 3.29 L 3.29 0.71 Q 4.00 0.00 5.00 0.00 Z" fill="#7F7F7F"/>
	<path d="M 4.21 0.00 L 7.20 0.00 Q 8.00 0.00 8.00 0.80 L 8.00 5.20 Q 8.00 6.00 7.20 6.00 L 4.21 6.00 Q 3.41 6.00 2.85 5.43 L 0.98 3.57 Q 0.41 3.00 0.98 2.43 L 2.85 0.57 Q 3.41 0.00 4.21 0.00 Z" fill="#1c1c26" transform="translate(1, 1)"/>
</g>
</g>
<g class="node" data-id="e13e27ba-96ec-4b02-a6d6-6cea244e49dc">
<rect x="949.9998917461464" y="479.99996136666977" width="140.0002165077072" height="40.0000772666605" rx="20" fill="#1c1c26"/>
<rect x="949.9998917461464" y="479.99996136666977" width="140.0002165077072" height="40.0000772666605" rx="20" fill="none" stroke="#7F7F7F" stroke-width="1"/>
<text x="1020" y="496" text-anchor="middle" dominant-baseline="middle" fill="#0070C0" font-size="10" font-weight="600" font-family="system-ui, -apple-system, sans-serif">Plant vs Setpoint</text>
<text x="1020" y="508" text-anchor="middle" dominant-baseline="middle" fill="#808090" font-size="8" font-family="system-ui, -apple-system, sans-serif">Scope</text>
<g transform="translate(1006.00, 475.67)">
	<path d="M 1.00 0.00 L 7.00 0.00 Q 8.00 0.00 8.00 1.00 L 8.00 5.00 Q 8.00 6.00 7.29 6.71 L 4.71 9.29 Q 4.00 10.00 3.29 9.29 L 0.71 6.71 Q 0.00 6.00 0.00 5.00 L 0.00 1.00 Q 0.00 0.00 1.00 0.00 Z" fill="#7F7F7F"/>
	<path d="M 0.80 0.00 L 5.20 0.00 Q 6.00 0.00 6.00 0.80 L 6.00 3.79 Q 6.00 4.59 5.43 5.15 L 3.57 7.02 Q 3.00 7.59 2.43 7.02 L 0.57 5.15 Q 0.00 4.59 0.00 3.79 L 0.00 0.80 Q 0.00 0.00 0.80 0.00 Z" fill="#1c1c26" transform="translate(1, 1)"/>
</g>
<g transform="translate(1026.00, 475.67)">
	<path d="M 1.00 0.00 L 7.00 0.00 Q 8.00 0.00 8.00 1.00 L 8.00 5.00 Q 8.00 6.00 7.29 6.71 L 4.71 9.29 Q 4.00 10.00 3.29 9.29 L 0.71 6.71 Q 0.00 6.00 0.00 5.00 L 0.00 1.00 Q 0.00 0.00 1.00 0.00 Z" fill="#7F7F7F"/>
	<path d="M 0.80 0.00 L 5.20 0.00 Q 6.00 0.00 6.00 0.80 L 6.00 3.79 Q 6.00 4.59 5.43 5.15 L 3.57 7.02 Q 3.00 7.59 2.43 7.02 L 0.57 5.15 Q 0.00 4.59 0.00 3.79 L 0.00 0.80 Q 0.00 0.00 0.80 0.00 Z" fill="#1c1c26" transform="translate(1, 1)"/>
</g>
</g>
<g class="node" data-id="802d8831-8960-498f-8fc5-61fbe945dda5">
<rect x="949.9999380256138" y="219.99996907032755" width="120.00012394877241" height="40.00006185934492" rx="20" fill="#1c1c26"/>
<rect x="949.9999380256138" y="219.99996907032755" width="120.00012394877241" height="40.00006185934492" rx="20" fill="none" stroke="#7F7F7F" stroke-width="1"/>
<text x="1010" y="236" text-anchor="middle" dominant-baseline="middle" fill="#0070C0" font-size="10" font-weight="600" font-family="system-ui, -apple-system, sans-serif">Err-1 and PI-1</text>
<text x="1010" y="248" text-anchor="middle" dominant-baseline="middle" fill="#808090" font-size="8" font-family="system-ui, -apple-system, sans-serif">Scope</text>
<g transform="translate(996.00, 254.33)">
	<path d="M 4.71 0.71 L 7.29 3.29 Q 8.00 4.00 8.00 5.00 L 8.00 9.00 Q 8.00 10.00 7.00 10.00 L 1.00 10.00 Q 0.00 10.00 0.00 9.00 L 0.00 5.00 Q 0.00 4.00 0.71 3.29 L 3.29 0.71 Q 4.00 0.00 4.71 0.71 Z" fill="#7F7F7F"/>
	<path d="M 3.57 0.98 L 5.43 2.85 Q 6.00 3.41 6.00 4.21 L 6.00 7.20 Q 6.00 8.00 5.20 8.00 L 0.80 8.00 Q 0.00 8.00 0.00 7.20 L 0.00 4.21 Q 0.00 3.41 0.57 2.85 L 2.43 0.98 Q 3.00 0.41 3.57 0.98 Z" fill="#1c1c26" transform="translate(1, 1)"/>
</g>
<g transform="translate(1016.00, 254.33)">
	<path d="M 4.71 0.71 L 7.29 3.29 Q 8.00 4.00 8.00 5.00 L 8.00 9.00 Q 8.00 10.00 7.00 10.00 L 1.00 10.00 Q 0.00 10.00 0.00 9.00 L 0.00 5.00 Q 0.00 4.00 0.71 3.29 L 3.29 0.71 Q 4.00 0.00 4.71 0.71 Z" fill="#7F7F7F"/>
	<path d="M 3.57 0.98 L 5.43 2.85 Q 6.00 3.41 6.00 4.21 L 6.00 7.20 Q 6.00 8.00 5.20 8.00 L 0.80 8.00 Q 0.00 8.00 0.00 7.20 L 0.00 4.21 Q 0.00 3.41 0.57 2.85 L 2.43 0.98 Q 3.00 0.41 3.57 0.98 Z" fill="#1c1c26" transform="translate(1, 1)"/>
</g>
</g>
<g class="node" data-id="f038da46-8db9-4e89-b625-c392fabc1958">
<rect x="1279.9998866678952" y="219.99996907032755" width="120.00022666420963" height="40.00006185934492" rx="20" fill="#1c1c26"/>
<rect x="1279.9998866678952" y="219.99996907032755" width="120.00022666420963" height="40.00006185934492" rx="20" fill="none" stroke="#7F7F7F" stroke-width="1"/>
<text x="1340" y="236" text-anchor="middle" dominant-baseline="middle" fill="#0070C0" font-size="10" font-weight="600" font-family="system-ui, -apple-system, sans-serif">Err-2 and PI-2</text>
<text x="1340" y="248" text-anchor="middle" dominant-baseline="middle" fill="#808090" font-size="8" font-family="system-ui, -apple-system, sans-serif">Scope</text>
<g transform="translate(1326.00, 254.33)">
	<path d="M 4.71 0.71 L 7.29 3.29 Q 8.00 4.00 8.00 5.00 L 8.00 9.00 Q 8.00 10.00 7.00 10.00 L 1.00 10.00 Q 0.00 10.00 0.00 9.00 L 0.00 5.00 Q 0.00 4.00 0.71 3.29 L 3.29 0.71 Q 4.00 0.00 4.71 0.71 Z" fill="#7F7F7F"/>
	<path d="M 3.57 0.98 L 5.43 2.85 Q 6.00 3.41 6.00 4.21 L 6.00 7.20 Q 6.00 8.00 5.20 8.00 L 0.80 8.00 Q 0.00 8.00 0.00 7.20 L 0.00 4.21 Q 0.00 3.41 0.57 2.85 L 2.43 0.98 Q 3.00 0.41 3.57 0.98 Z" fill="#1c1c26" transform="translate(1, 1)"/>
</g>
<g transform="translate(1346.00, 254.33)">
	<path d="M 4.71 0.71 L 7.29 3.29 Q 8.00 4.00 8.00 5.00 L 8.00 9.00 Q 8.00 10.00 7.00 10.00 L 1.00 10.00 Q 0.00 10.00 0.00 9.00 L 0.00 5.00 Q 0.00 4.00 0.71 3.29 L 3.29 0.71 Q 4.00 0.00 4.71 0.71 Z" fill="#7F7F7F"/>
	<path d="M 3.57 0.98 L 5.43 2.85 Q 6.00 3.41 6.00 4.21 L 6.00 7.20 Q 6.00 8.00 5.20 8.00 L 0.80 8.00 Q 0.00 8.00 0.00 7.20 L 0.00 4.21 Q 0.00 3.41 0.57 2.85 L 2.43 0.98 Q 3.00 0.41 3.57 0.98 Z" fill="#1c1c26" transform="translate(1, 1)"/>
</g>
</g>
</g>
</svg>