<?xml version="1.0" encoding="UTF-8"?>
<svg xmlns="http://www.w3.org/2000/svg" width="919.9999686761329" height="459.99998955871104" viewBox="660.000010441289 140.0000052206445 919.9999686761329 459.99998955871104">
<g class="edges">
<g class="edge"><path d="M1313.8336391573728 340.00007053174147L1333.8336391573728 340.00007053174147L 1342.5000881646768,340.00007053174147Q 1342.5001470032923,340.00007053174147 1342.5001470032923,340.00012937035706L 1342.5001470032923,340.00012937035706Q 1342.5001470032923,340.0001882089727 1342.500205841908,340.0001882089727L1351.166654849212 340.0001882089727L1371.166654849212 340.0001882089727" fill="none" stroke="#7F7F7F" stroke-width="1.5"/><g transform="translate(1371.1666259765625, 340.00018310546875) rotate(0) translate(5, 0)"><path d="M -5 -2.5 L -1 -0.5 Q 0 0 -1 0.5 L -5 2.5 Q -6 3 -6 2 L -6 -2 Q -6 -3 -5 -2.5 Z" fill="#7F7F7F"/></g></g>
<g class="edge"><path d="M1173.83399181608 330.0001882089727L1193.83399181608 330.0001882089727L 1197.5002497377532,330.0001882089727Q 1197.500323332646,330.0001882089727 1197.500323332646,330.00011461407985L 1197.500323332646,330.00011461407985Q 1197.500323332646,330.000041019187 1197.500396927539,330.000041019187L1201.166654849212 330.000041019187L1221.166654849212 330.000041019187" fill="none" stroke="#7F7F7F" stroke-width="1.5"/><g transform="translate(1221.1666259765625, 330.0000305175781) rotate(0) translate(5, 0)"><path d="M -5 -2.5 L -1 -0.5 Q 0 0 -1 0.5 L -5 2.5 Q -6 3 -6 2 L -6 -2 Q -6 -3 -5 -2.5 Z" fill="#7F7F7F"/></g></g>
<g class="edge"><path d="M943.8336682969408 330.00007053174147L963.8336682969408 330.00007053174147L 972.5001318740287,330.00007053174147Q 972.5001907126443,330.00007053174147 972.5001907126443,330.00012937035706L 972.5001907126443,330.00012937035706Q 972.5001907126443,330.0001882089727 972.5002495512599,330.0001882089727L981.166713128348 330.0001882089727L1001.166713128348 330.0001882089727" fill="none" stroke="#7F7F7F" stroke-width="1.5"/><g transform="translate(1001.1666870117188, 330.00018310546875) rotate(0) translate(5, 0)"><path d="M -5 -2.5 L -1 -0.5 Q 0 0 -1 0.5 L -5 2.5 Q -6 3 -6 2 L -6 -2 Q -6 -3 -5 -2.5 Z" fill="#7F7F7F"/></g></g>
<g class="edge"><path d="M783.8336391573728 470.00007053174147L803.8336391573728 470.00007053174147L 810.6669003652246,470.00007053174147Q 817.5001615730764,470.00007053174147 817.5001615730764,463.16680932388965L 817.5001615730764,326.83327308747084Q 817.5001615730764,320.0000118796191 824.3334227809282,320.0000118796191L831.1666839887799 320.0000118796191L851.1666839887799 320.0000118796191" fill="none" stroke="#7F7F7F" stroke-width="1.5"/><g transform="translate(851.1666870117188, 320) rotate(0) translate(5, 0)"><path d="M -5 -2.5 L -1 -0.5 Q 0 0 -1 0.5 L -5 2.5 Q -6 3 -6 2 L -6 -2 Q -6 -3 -5 -2.5 Z" fill="#7F7F7F"/></g></g>
<g class="edge"><path d="M1543.8338752578084 340.0001882089727L 1555.8338752578084,340.0001882089727Q 1563.8338752578084,340.0001882089727 1563.8338752578084,348.0001882089727L 1563.8338752578084,442.00007053174147Q 1563.8338752578084,450.00007053174147 1555.8338752578084,450.00007053174147L1398.833580878237 450.00007053174147L1378.833580878237 450.00007053174147" fill="none" stroke="#7F7F7F" stroke-width="1.5"/><g transform="translate(1378.8336181640625, 450.00006103515625) rotate(180) translate(5, 0)"><path d="M -5 -2.5 L -1 -0.5 Q 0 0 -1 0.5 L -5 2.5 Q -6 3 -6 2 L -6 -2 Q -6 -3 -5 -2.5 Z" fill="#7F7F7F"/></g></g>
<g class="edge"><path d="M1286.166654849212 460.0001291838638L1266.166654849212 460.0001291838638L 1058.0002472340816,460.0001291838638Q 1050.0002472340816,460.0001291838638 1050.0002472340816,468.0001291838638L1050.0002472340816 491.166654849212L1050.0002472340816 511.166654849212" fill="none" stroke="#7F7F7F" stroke-width="1.5"/><g transform="translate(1050.000244140625, 511.1666564941406) rotate(90) translate(5, 0)"><path d="M -5 -2.5 L -1 -0.5 Q 0 0 -1 0.5 L -5 2.5 Q -6 3 -6 2 L -6 -2 Q -6 -3 -5 -2.5 Z" fill="#7F7F7F"/></g></g>
<g class="edge"><path d="M1286.166654849212 440.0000118796191L1266.166654849212 440.0000118796191L 1209.166654849212,440.0000118796191Q 1201.166654849212,440.0000118796191 1201.166654849212,432.0000118796191L 1201.166654849212,358.0001000442959Q 1201.166654849212,350.0001000442959 1209.166654849212,350.0001000442959L1221.166654849212 350.0001000442959" fill="none" stroke="#7F7F7F" stroke-width="1.5"/><g transform="translate(1221.1666259765625, 350.0000915527344) rotate(0) translate(5, 0)"><path d="M -5 -2.5 L -1 -0.5 Q 0 0 -1 0.5 L -5 2.5 Q -6 3 -6 2 L -6 -2 Q -6 -3 -5 -2.5 Z" fill="#7F7F7F"/></g></g>
<g class="edge"><path d="M1286.166654849212 460.0001291838638L1266.166654849212 460.0001291838638L 839.1666839887799,460.0001291838638Q 831.1666839887799,460.0001291838638 831.1666839887799,452.0001291838638L 831.1666839887799,348.0001000442959Q 831.1666839887799,340.0001000442959 839.1666839887799,340.0001000442959L851.1666839887799 340.0001000442959" fill="none" stroke="#7F7F7F" stroke-width="1.5"/><g transform="translate(851.1666870117188, 340.0000915527344) rotate(0) translate(5, 0)"><path d="M -5 -2.5 L -1 -0.5 Q 0 0 -1 0.5 L -5 2.5 Q -6 3 -6 2 L -6 -2 Q -6 -3 -5 -2.5 Z" fill="#7F7F7F"/></g></g>
<g class="edge"><path d="M943.8336682969408 330.00007053174147L963.8336682969408 330.00007053174147L 972.0001878359863,330.00007053174147Q 980.0001878359863,330.00007053174147 980.0001878359863,322.00007053174147L980.0001878359863 248.83349196758718L980.0001878359863 228.83349196758718" fill="none" stroke="#7F7F7F" stroke-width="1.5"/><g transform="translate(980.0001831054688, 228.83349609375) rotate(-90) translate(5, 0)"><path d="M -5 -2.5 L -1 -0.5 Q 0 0 -1 0.5 L -5 2.5 Q -6 3 -6 2 L -6 -2 Q -6 -3 -5 -2.5 Z" fill="#7F7F7F"/></g></g>
<g class="edge"><path d="M1173.83399181608 330.0001882089727L 1185.83399181608,330.0001882089727Q 1193.83399181608,330.0001882089727 1193.83399181608,322.0001882089727L 1193.83399181608,256.8334919675872Q 1193.83399181608,248.83349196758718 1185.83399181608,248.83349196758718L 1008.0002468610951,248.83349196758718Q 1000.0002468610951,248.83349196758718 1000.0002468610951,240.83349196758718L1000.0002468610951 228.83349196758718" fill="none" stroke="#7F7F7F" stroke-width="1.5"/><g transform="translate(1000.000244140625, 228.83349609375) rotate(-90) translate(5, 0)"><path d="M -5 -2.5 L -1 -0.5 Q 0 0 -1 0.5 L -5 2.5 Q -6 3 -6 2 L -6 -2 Q -6 -3 -5 -2.5 Z" fill="#7F7F7F"/></g></g>
<g class="edge"><path d="M1313.8336391573728 340.00007053174147L1333.8336391573728 340.00007053174147L 1342.0000129985785,340.00007053174147Q 1350.0000129985785,340.00007053174147 1350.0000129985785,332.00007053174147L1350.0000129985785 248.83349196758718L1350.0000129985785 228.83349196758718" fill="none" stroke="#7F7F7F" stroke-width="1.5"/><g transform="translate(1350, 228.83349609375) rotate(-90) translate(5, 0)"><path d="M -5 -2.5 L -1 -0.5 Q 0 0 -1 0.5 L -5 2.5 Q -6 3 -6 2 L -6 -2 Q -6 -3 -5 -2.5 Z" fill="#7F7F7F"/></g></g>
<g class="edge"><path d="M1543.8338752578084 340.0001882089727L 1555.8338752578084,340.0001882089727Q 1563.8338752578084,340.0001882089727 1563.8338752578084,332.0001882089727L 1563.8338752578084,256.8334919675872Q 1563.8338752578084,248.83349196758718 1555.8338752578084,248.83349196758718L 1378.0001885819593,248.83349196758718Q 1370.0001885819593,248.83349196758718 1370.0001885819593,240.83349196758718L1370.0001885819593 228.83349196758718" fill="none" stroke="#7F7F7F" stroke-width="1.5"/><g transform="translate(1370.000244140625, 228.83349609375) rotate(-90) translate(5, 0)"><path d="M -5 -2.5 L -1 -0.5 Q 0 0 -1 0.5 L -5 2.5 Q -6 3 -6 2 L -6 -2 Q -6 -3 -5 -2.5 Z" fill="#7F7F7F"/></g></g>
<g class="edge"><path d="M783.8336391573728 470.00007053174147L803.8336391573728 470.00007053174147L 1022.0001882089728,470.00007053174147Q 1030.0001882089728,470.00007053174147 1030.0001882089728,478.00007053174147L1030.0001882089728 491.166654849212L1030.0001882089728 511.166654849212" fill="none" stroke="#7F7F7F" stroke-width="1.5"/><g transform="translate(1030.000244140625, 511.1666564941406) rotate(90) translate(5, 0)"><path d="M -5 -2.5 L -1 -0.5 Q 0 0 -1 0.5 L -5 2.5 Q -6 3 -6 2 L -6 -2 Q -6 -3 -5 -2.5 Z" fill="#7F7F7F"/></g></g>
</g>
<g class="nodes">
<g class="node" data-id="7c855194-3fcf-4d00-acbd-0e3051f5703c">
<rect x="700.000010441289" y="450.0000052206445" width="79.999979117422" height="39.999989558711" rx="20" fill="#1c1c26"/>
<rect x="700.000010441289" y="450.0000052206445" width="79.999979117422" height="39.999989558711" rx="20" fill="none" stroke="#7F7F7F" stroke-width="1"/>
<text x="740" y="466" text-anchor="middle" dominant-baseline="middle" fill="#0070C0" font-size="10" font-weight="600" font-family="system-ui, -apple-system, sans-serif">Setpoint</text>
<text x="740" y="478" text-anchor="middle" dominant-baseline="middle" fill="#808090" font-size="8" font-family="system-ui, -apple-system, sans-serif">StepSource</text>
<g transform="translate(774.33, 466.00)">
	<path d="M 1.00 0.00 L 5.00 0.00 Q 6.00 0.00 6.71 0.71 L 9.29 3.29 Q 10.00 4.00 9.29 4.71 L 6.71 7.29 Q 6.00 8.00 5.00 8.00 L 1.00 8.00 Q 0.00 8.00 0.00 7.00 L 0.00 1.00 Q 0.00 0.00 1.00 0.00 Z" fill="#7F7F7F"/>
	<path d="M 0.80 0.00 L 3.79 0.00 Q 4.59 0.00 5.15 0.57 L 7.02 2.43 Q 7.59 3.00 7.02 3.57 L 5.15 5.43 Q 4.59 6.00 3.79 6.00 L 0.80 6.00 Q 0.00 6.00 0.00 5.20 L 0.00 0.80 Q 0.00 0.00 0.80 0.00 Z" fill="#1c1c26" transform="translate(1, 1)"/>
</g>
</g>
<g class="node" data-id="f7ffd92f-16eb-4760-8285-8ed7fafc90fd">
<rect x="1009.9999659010662" y="280.00001305161123" width="160.0000681978677" height="99.9999738967775" rx="4" fill="#1c1c26"/>
<rect x="1009.9999659010662" y="280.00001305161123" width="160.0000681978677" height="99.9999738967775" rx="4" fill="none" stroke="#7F7F7F" stroke-width="1"/>
<text x="1090" y="298.3333632142722" text-anchor="middle" dominant-baseline="middle" fill="#0070C0" font-size="10" font-weight="600" font-family="system-ui, -apple-system, sans-serif">PI-1</text>
<text x="1090" y="310.3333632142722" text-anchor="middle" dominant-baseline="middle" fill="#808090" font-size="8" font-family="system-ui, -apple-system, sans-serif">PID</text>
<line x1="1009.9999659010662" y1="324.66671337693316" x2="1170.0000340989338" y2="324.66671337693316" stroke="rgba(255, 255, 255, 0.08)" stroke-width="1"/>
<path d="M1010.9999659010662,325.66671337693316 h158.0000681978677 v50.66663273684928 a3,3 0 0 1 -3,3 h-152.0000681978677 a3,3 0 0 1 -3,-3 v-50.66663273684928 z" fill="#08080c"/>
<text x="1020.6666990934161" y="339.3333284395256" dominant-baseline="middle" fill="#808090" font-size="8" font-family="system-ui, -apple-system, sans-serif">Ki</text>
<rect x="1034.1041805908378" y="329.3333441704359" width="125.22915030566158" height="19.9999947793555" rx="10" fill="#1c1c26" stroke="rgba(255, 255, 255, 0.08)" stroke-width="1"/>
<text x="1042.1041805908378" y="339.33334156011364" dominant-baseline="middle" fill="#f0f0f5" font-size="9" font-family="ui-monospace, monospace">0.015/0.716</text>
<text x="1020.6666990934161" y="363.33335128996185" dominant-baseline="middle" fill="#808090" font-size="8" font-family="system-ui, -apple-system, sans-serif">Kp</text>
<rect x="1036.9479443436533" y="353.33331391373" width="122.38540654612315" height="19.9999947793555" rx="10" fill="#1c1c26" stroke="rgba(255, 255, 255, 0.08)" stroke-width="1"/>
<text x="1044.9479443436533" y="363.33331130340775" dominant-baseline="middle" fill="#f0f0f5" font-size="9" font-family="ui-monospace, monospace">0.015</text>
<g transform="translate(1005.67, 326.00)">
	<path d="M 1.00 0.00 L 5.00 0.00 Q 6.00 0.00 6.71 0.71 L 9.29 3.29 Q 10.00 4.00 9.29 4.71 L 6.71 7.29 Q 6.00 8.00 5.00 8.00 L 1.00 8.00 Q 0.00 8.00 0.00 7.00 L 0.00 1.00 Q 0.00 0.00 1.00 0.00 Z" fill="#7F7F7F"/>
	<path d="M 0.80 0.00 L 3.79 0.00 Q 4.59 0.00 5.15 0.57 L 7.02 2.43 Q 7.59 3.00 7.02 3.57 L 5.15 5.43 Q 4.59 6.00 3.79 6.00 L 0.80 6.00 Q 0.00 6.00 0.00 5.20 L 0.00 0.80 Q 0.00 0.00 0.80 0.00 Z" fill="#1c1c26" transform="translate(1, 1)"/>
</g>
<g transform="translate(1164.33, 326.00)">
	<path d="M 1.00 0.00 L 5.00 0.00 Q 6.00 0.00 6.71 0.71 L 9.29 3.29 Q 10.00 4.00 9.29 4.71 L 6.71 7.29 Q 6.00 8.00 5.00 8.00 L 1.00 8.00 Q 0.00 8.00 0.00 7.00 L 0.00 1.00 Q 0.00 0.00 1.00 0.00 Z" fill="#7F7F7F"/>
	<path d="M 0.80 0.00 L 3.79 0.00 Q 4.59 0.00 5.15 0.57 L 7.02 2.43 Q 7.59 3.00 7.02 3.57 L 5.15 5.43 Q 4.59 6.00 3.79 6.00 L 0.80 6.00 Q 0.00 6.00 0.00 5.20 L 0.00 0.80 Q 0.00 0.00 0.80 0.00 Z" fill="#1c1c26" transform="translate(1, 1)"/>
</g>
</g>
<g class="node" data-id="b449fb93-54e1-4cfd-862b-cbb66d919d91">
<rect x="860.000010441289" y="310.0000052206445" width="79.999979117422" height="39.999989558711" rx="4" fill="#1c1c26"/>
<rect x="860.000010441289" y="310.0000052206445" width="79.999979117422" height="39.999989558711" rx="4" fill="none" stroke="#7F7F7F" stroke-width="1"/>
<text x="900" y="326" text-anchor="middle" dominant-baseline="middle" fill="#0070C0" font-size="10" font-weight="600" font-family="system-ui, -apple-system, sans-serif">Error-1</text>
<text x="900" y="338" text-anchor="middle" dominant-baseline="middle" fill="#808090" font-size="8" font-family="system-ui, -apple-system, sans-serif">Adder</text>
<g transform="translate(855.67, 316.00)">
	<path d="M 1.00 0.00 L 5.00 0.00 Q 6.00 0.00 6.71 0.71 L 9.29 3.29 Q 10.00 4.00 9.29 4.71 L 6.71 7.29 Q 6.00 8.00 5.00 8.00 L 1.00 8.00 Q 0.00 8.00 0.00 7.00 L 0.00 1.00 Q 0.00 0.00 1.00 0.00 Z" fill="#7F7F7F"/>
	<path d="M 0.80 0.00 L 3.79 0.00 Q 4.59 0.00 5.15 0.57 L 7.02 2.43 Q 7.59 3.00 7.02 3.57 L 5.15 5.43 Q 4.59 6.00 3.79 6.00 L 0.80 6.00 Q 0.00 6.00 0.00 5.20 L 0.00 0.80 Q 0.00 0.00 0.80 0.00 Z" fill="#1c1c26" transform="translate(1, 1)"/>
</g>
<g transform="translate(855.67, 336.00)">
	<path d="M 1.00 0.00 L 5.00 0.00 Q 6.00 0.00 6.71 0.71 L 9.29 3.29 Q 10.00 4.00 9.29 4.71 L 6.71 7.29 Q 6.00 8.00 5.00 8.00 L 1.00 8.00 Q 0.00 8.00 0.00 7.00 L 0.00 1.00 Q 0.00 0.00 1.00 0.00 Z" fill="#7F7F7F"/>
	<path d="M 0.80 0.00 L 3.79 0.00 Q 4.59 0.00 5.15 0.57 L 7.02 2.43 Q 7.59 3.00 7.02 3.57 L 5.15 5.43 Q 4.59 6.00 3.79 6.00 L 0.80 6.00 Q 0.00 6.00 0.00 5.20 L 0.00 0.80 Q 0.00 0.00 0.80 0.00 Z" fill="#1c1c26" transform="translate(1, 1)"/>
</g>
<g transform="translate(934.33, 326.00)">
	<path d="M 1.00 0.00 L 5.00 0.00 Q 6.00 0.00 6.71 0.71 L 9.29 3.29 Q 10.00 4.00 9.29 4.71 L 6.71 7.29 Q 6.00 8.00 5.00 8.00 L 1.00 8.00 Q 0.00 8.00 0.00 7.00 L 0.00 1.00 Q 0.00 0.00 1.00 0.00 Z" fill="#7F7F7F"/>
	<path d="M 0.80 0.00 L 3.79 0.00 Q 4.59 0.00 5.15 0.57 L 7.02 2.43 Q 7.59 3.00 7.02 3.57 L 5.15 5.43 Q 4.59 6.00 3.79 6.00 L 0.80 6.00 Q 0.00 6.00 0.00 5.20 L 0.00 0.80 Q 0.00 0.00 0.80 0.00 Z" fill="#1c1c26" transform="translate(1, 1)"/>
</g>
</g>
<g class="node" data-id="c5fc3645-c55b-4478-8125-665418379764">
<rect x="1230.000010441289" y="320.0000052206445" width="79.999979117422" height="39.999989558711" rx="4" fill="#1c1c26"/>
<rect x="1230.000010441289" y="320.0000052206445" width="79.999979117422" height="39.999989558711" rx="4" fill="none" stroke="#7F7F7F" stroke-width="1"/>
<text x="1270" y="336" text-anchor="middle" dominant-baseline="middle" fill="#0070C0" font-size="10" font-weight="600" font-family="system-ui, -apple-system, sans-serif">Error-2</text>
<text x="1270" y="348" text-anchor="middle" dominant-baseline="middle" fill="#808090" font-size="8" font-family="system-ui, -apple-system, sans-serif">Adder</text>
<g transform="translate(1225.67, 326.00)">
	<path d="M 1.00 0.00 L 5.00 0.00 Q 6.00 0.00 6.71 0.71 L 9.29 3.29 Q 10.00 4.00 9.29 4.71 L 6.71 7.29 Q 6.00 8.00 5.00 8.00 L 1.00 8.00 Q 0.00 8.00 0.00 7.00 L 0.00 1.00 Q 0.00 0.00 1.00 0.00 Z" fill="#7F7F7F"/>
	<path d="M 0.80 0.00 L 3.79 0.00 Q 4.59 0.00 5.15 0.57 L 7.02 2.43 Q 7.59 3.00 7.02 3.57 L 5.15 5.43 Q 4.59 6.00 3.79 6.00 L 0.80 6.00 Q 0.00 6.00 0.00 5.20 L 0.00 0.80 Q 0.00 0.00 0.80 0.00 Z" fill="#1c1c26" transform="translate(1, 1)"/>
</g>
<g transform="translate(1225.67, 346.00)">
	<path d="M 1.00 0.00 L 5.00 0.00 Q 6.00 0.00 6.71 0.71 L 9.29 3.29 Q 10.00 4.00 9.29 4.71 L 6.71 7.29 Q 6.00 8.00 5.00 8.00 L 1.00 8.00 Q 0.00 8.00 0.00 7.00 L 0.00 1.00 Q 0.00 0.00 1.00 0.00 Z" fill="#7F7F7F"/>
	<path d="M 0.80 0.00 L 3.79 0.00 Q 4.59 0.00 5.15 0.57 L 7.02 2.43 Q 7.59 3.00 7.02 3.57 L 5.15 5.43 Q 4.59 6.00 3.79 6.00 L 0.80 6.00 Q 0.00 6.00 0.00 5.20 L 0.00 0.80 Q 0.00 0.00 0.80 0.00 Z" fill="#1c1c26" transform="translate(1, 1)"/>
</g>
<g transform="translate(1304.33, 336.00)">
	<path d="M 1.00 0.00 L 5.00 0.00 Q 6.00 0.00 6.71 0.71 L 9.29 3.29 Q 10.00 4.00 9.29 4.71 L 6.71 7.29 Q 6.00 8.00 5.00 8.00 L 1.00 8.00 Q 0.00 8.00 0.00 7.00 L 0.00 1.00 Q 0.00 0.00 1.00 0.00 Z" fill="#7F7F7F"/>
	<path d="M 0.80 0.00 L 3.79 0.00 Q 4.59 0.00 5.15 0.57 L 7.02 2.43 Q 7.59 3.00 7.02 3.57 L 5.15 5.43 Q 4.59 6.00 3.79 6.00 L 0.80 6.00 Q 0.00 6.00 0.00 5.20 L 0.00 0.80 Q 0.00 0.00 0.80 0.00 Z" fill="#1c1c26" transform="translate(1, 1)"/>
</g>
</g>
<g class="node" data-id="096ba23a-fd02-43ca-aabe-92a83db7b610">
<rect x="1380.000020882578" y="290.00001305161123" width="159.999958234844" height="99.9999738967775" rx="4" fill="#1c1c26"/>
<rect x="1380.000020882578" y="290.00001305161123" width="159.999958234844" height="99.9999738967775" rx="4" fill="none" stroke="#7F7F7F" stroke-width="1"/>
<text x="1460" y="308.3333632142722" text-anchor="middle" dominant-baseline="middle" fill="#0070C0" font-size="10" font-weight="600" font-family="system-ui, -apple-system, sans-serif">PI-2</text>
<text x="1460" y="320.3333632142722" text-anchor="middle" dominant-baseline="middle" fill="#808090" font-size="8" font-family="system-ui, -apple-system, sans-serif">PID</text>
<line x1="1380.000020882578" y1="334.66671337693316" x2="1539.9999791174218" y2="334.66671337693316" stroke="rgba(255, 255, 255, 0.08)" stroke-width="1"/>
<path d="M1381.000020882578,335.66671337693316 h157.999958234844 v50.66663273684928 a3,3 0 0 1 -3,3 h-151.999958234844 a3,3 0 0 1 -3,-3 v-50.66663273684928 z" fill="#08080c"/>
<text x="1390.666754074928" y="349.3333284395256" dominant-baseline="middle" fill="#808090" font-size="8" font-family="system-ui, -apple-system, sans-serif">Kp</text>
<rect x="1406.947999325165" y="339.3333441704359" width="122.38540654612315" height="19.9999947793555" rx="10" fill="#1c1c26" stroke="rgba(255, 255, 255, 0.08)" stroke-width="1"/>
<text x="1414.947999325165" y="349.33334156011364" dominant-baseline="middle" fill="#f0f0f5" font-size="9" font-family="ui-monospace, monospace">0.244</text>
<text x="1390.666754074928" y="373.33335128996185" dominant-baseline="middle" fill="#808090" font-size="8" font-family="system-ui, -apple-system, sans-serif">Ki</text>
<rect x="1404.1042355723496" y="363.33331391373" width="125.22915030566158" height="19.9999947793555" rx="10" fill="#1c1c26" stroke="rgba(255, 255, 255, 0.08)" stroke-width="1"/>
<text x="1412.1042355723496" y="373.33331130340775" dominant-baseline="middle" fill="#f0f0f5" font-size="9" font-family="ui-monospace, monospace">0.244/0.134</text>
<g transform="translate(1375.67, 336.00)">
	<path d="M 1.00 0.00 L 5.00 0.00 Q 6.00 0.00 6.71 0.71 L 9.29 3.29 Q 10.00 4.00 9.29 4.71 L 6.71 7.29 Q 6.00 8.00 5.00 8.00 L 1.00 8.00 Q 0.00 8.00 0.00 7.00 L 0.00 1.00 Q 0.00 0.00 1.00 0.00 Z" fill="#7F7F7F"/>
	<path d="M 0.80 0.00 L 3.79 0.00 Q 4.59 0.00 5.15 0.57 L 7.02 2.43 Q 7.59 3.00 7.02 3.57 L 5.15 5.43 Q 4.59 6.00 3.79 6.00 L 0.80 6.00 Q 0.00 6.00 0.00 5.20 L 0.00 0.80 Q 0.00 0.00 0.80 0.00 Z" fill="#1c1c26" transform="translate(1, 1)"/>
</g>
<g transform="translate(1534.33, 336.00)">
	<path d="M 1.00 0.00 L 5.00 0.00 Q 6.00 0.00 6.71 0.71 L 9.29 3.29 Q 10.00 4.00 9.29 4.71 L 6.71 7.29 Q 6.00 8.00 5.00 8.00 L 1.00 8.00 Q 0.00 8.00 0.00 7.00 L 0.00 1.00 Q 0.00 0.00 1.00 0.00 Z" fill="#7F7F7F"/>
	<path d="M 0.80 0.00 L 3.79 0.00 Q 4.59 0.00 5.15 0.57 L 7.02 2.43 Q 7.59 3.00 7.02 3.57 L 5.15 5.43 Q 4.59 6.00 3.79 6.00 L 0.80 6.00 Q 0.00 6.00 0.00 5.20 L 0.00 0.80 Q 0.00 0.00 0.80 0.00 Z" fill="#1c1c26" transform="translate(1, 1)"/>
</g>
</g>
<g class="node" data-id="40ac8e75-a709-4434-9001-63bc1d73106c">
<rect x="1290.000010441289" y="430.0000052206445" width="79.999979117422" height="39.999989558711" rx="4" fill="#1c1c26"/>
<rect x="1290.000010441289" y="430.0000052206445" width="79.999979117422" height="39.999989558711" rx="4" fill="none" stroke="#7F7F7F" stroke-width="1" stroke-dasharray="4 2"/>
<text x="1330" y="446" text-anchor="middle" dominant-baseline="middle" fill="#0070C0" font-size="10" font-weight="600" font-family="system-ui, -apple-system, sans-serif">Plant</text>
<text x="1330" y="458" text-anchor="middle" dominant-baseline="middle" fill="#808090" font-size="8" font-family="system-ui, -apple-system, sans-serif">Subsystem</text>
<g transform="translate(1364.33, 446.00)">
	<path d="M 5.00 0.00 L 9.00 0.00 Q 10.00 0.00 10.00 1.00 L 10.00 7.00 Q 10.00 8.00 9.00 8.00 L 5.00 8.00 Q 4.00 8.00 3.29 7.29 L 0.71 4.71 Q 0.00 4.00 0.71 3.29 L 3.29 0.71 Q 4.00 0.00 5.00 0.00 Z" fill="#7F7F7F"/>
	<path d="M 4.21 0.00 L 7.20 0.00 Q 8.00 0.00 8.00 0.80 L 8.00 5.20 Q 8.00 6.00 7.20 6.00 L 4.21 6.00 Q 3.41 6.00 2.85 5.43 L 0.98 3.57 Q 0.41 3.00 0.98 2.43 L 2.85 0.57 Q 3.41 0.00 4.21 0.00 Z" fill="#1c1c26" transform="translate(1, 1)"/>
</g>
<g transform="translate(1285.67, 436.00)">
	<path d="M 5.00 0.00 L 9.00 0.00 Q 10.00 0.00 10.00 1.00 L 10.00 7.00 Q 10.00 8.00 9.00 8.00 L 5.00 8.00 Q 4.00 8.00 3.29 7.29 L 0.71 4.71 Q 0.00 4.00 0.71 3.29 L 3.29 0.71 Q 4.00 0.00 5.00 0.00 Z" fill="#7F7F7F"/>
	<path d="M 4.21 0.00 L 7.20 0.00 Q 8.00 0.00 8.00 0.80 L 8.00 5.20 Q 8.00 6.00 7.20 6.00 L 4.21 6.00 Q 3.41 6.00 2.85 5.43 L 0.98 3.57 Q 0.41 3.00 0.98 2.43 L 2.85 0.57 Q 3.41 0.00 4.21 0.00 Z" fill="#1c1c26" transform="translate(1, 1)"/>
</g>
<g transform="translate(1285.67, 456.00)">
	<path d="M 5.00 0.00 L 9.00 0.00 Q 10.00 0.00 10.00 1.00 L 10.00 7.00 Q 10.00 8.00 9.00 8.00 L 5.00 8.00 Q 4.00 8.00 3.29 7.29 L 0.71 4.71 Q 0.00 4.00 0.71 3.29 L 3.29 0.71 Q 4.00 0.00 5.00 0.00 Z" fill="#7F7F7F"/>
	<path d="M 4.21 0.00 L 7.20 0.00 Q 8.00 0.00 8.00 0.80 L 8.00 5.20 Q 8.00 6.00 7.20 6.00 L 4.21 6.00 Q 3.41 6.00 2.85 5.43 L 0.98 3.57 Q 0.41 3.00 0.98 2.43 L 2.85 0.57 Q 3.41 0.00 4.21 0.00 Z" fill="#1c1c26" transform="translate(1, 1)"/>
</g>
</g>
<g class="node" data-id="e13e27ba-96ec-4b02-a6d6-6cea244e49dc">
<rect x="980.0000156619335" y="520.0000052206445" width="119.999968676133" height="39.999989558711" rx="20" fill="#1c1c26"/>
<rect x="980.0000156619335" y="520.0000052206445" width="119.999968676133" height="39.999989558711" rx="20" fill="none" stroke="#7F7F7F" stroke-width="1"/>
<text x="1040" y="536" text-anchor="middle" dominant-baseline="middle" fill="#0070C0" font-size="10" font-weight="600" font-family="system-ui, -apple-system, sans-serif">Plant vs Setpoint</text>
<text x="1040" y="548" text-anchor="middle" dominant-baseline="middle" fill="#808090" font-size="8" font-family="system-ui, -apple-system, sans-serif">Scope</text>
<g transform="translate(1026.00, 515.67)">
	<path d="M 1.00 0.00 L 7.00 0.00 Q 8.00 0.00 8.00 1.00 L 8.00 5.00 Q 8.00 6.00 7.29 6.71 L 4.71 9.29 Q 4.00 10.00 3.29 9.29 L 0.71 6.71 Q 0.00 6.00 0.00 5.00 L 0.00 1.00 Q 0.00 0.00 1.00 0.00 Z" fill="#7F7F7F"/>
	<path d="M 0.80 0.00 L 5.20 0.00 Q 6.00 0.00 6.00 0.80 L 6.00 3.79 Q 6.00 4.59 5.43 5.15 L 3.57 7.02 Q 3.00 7.59 2.43 7.02 L 0.57 5.15 Q 0.00 4.59 0.00 3.79 L 0.00 0.80 Q 0.00 0.00 0.80 0.00 Z" fill="#1c1c26" transform="translate(1, 1)"/>
</g>
<g transform="translate(1046.00, 515.67)">
	<path d="M 1.00 0.00 L 7.00 0.00 Q 8.00 0.00 8.00 1.00 L 8.00 5.00 Q 8.00 6.00 7.29 6.71 L 4.71 9.29 Q 4.00 10.00 3.29 9.29 L 0.71 6.71 Q 0.00 6.00 0.00 5.00 L 0.00 1.00 Q 0.00 0.00 1.00 0.00 Z" fill="#7F7F7F"/>
	<path d="M 0.80 0.00 L 5.20 0.00 Q 6.00 0.00 6.00 0.80 L 6.00 3.79 Q 6.00 4.59 5.43 5.15 L 3.57 7.02 Q 3.00 7.59 2.43 7.02 L 0.57 5.15 Q 0.00 4.59 0.00 3.79 L 0.00 0.80 Q 0.00 0.00 0.80 0.00 Z" fill="#1c1c26" transform="translate(1, 1)"/>
</g>
</g>
<g class="node" data-id="802d8831-8960-498f-8fc5-61fbe945dda5">
<rect x="940.0000130516113" y="180.0000052206445" width="99.9999738967775" height="39.999989558711" rx="20" fill="#1c1c26"/>
<rect x="940.0000130516113" y="180.0000052206445" width="99.9999738967775" height="39.999989558711" rx="20" fill="none" stroke="#7F7F7F" stroke-width="1"/>
<text x="990" y="196" text-anchor="middle" dominant-baseline="middle" fill="#0070C0" font-size="10" font-weight="600" font-family="system-ui, -apple-system, sans-serif">Err-1 and PI-1</text>
<text x="990" y="208" text-anchor="middle" dominant-baseline="middle" fill="#808090" font-size="8" font-family="system-ui, -apple-system, sans-serif">Scope</text>
<g transform="translate(976.00, 214.33)">
	<path d="M 4.71 0.71 L 7.29 3.29 Q 8.00 4.00 8.00 5.00 L 8.00 9.00 Q 8.00 10.00 7.00 10.00 L 1.00 10.00 Q 0.00 10.00 0.00 9.00 L 0.00 5.00 Q 0.00 4.00 0.71 3.29 L 3.29 0.71 Q 4.00 0.00 4.71 0.71 Z" fill="#7F7F7F"/>
	<path d="M 3.57 0.98 L 5.43 2.85 Q 6.00 3.41 6.00 4.21 L 6.00 7.20 Q 6.00 8.00 5.20 8.00 L 0.80 8.00 Q 0.00 8.00 0.00 7.20 L 0.00 4.21 Q 0.00 3.41 0.57 2.85 L 2.43 0.98 Q 3.00 0.41 3.57 0.98 Z" fill="#1c1c26" transform="translate(1, 1)"/>
</g>
<g transform="translate(996.00, 214.33)">
	<path d="M 4.71 0.71 L 7.29 3.29 Q 8.00 4.00 8.00 5.00 L 8.00 9.00 Q 8.00 10.00 7.00 10.00 L 1.00 10.00 Q 0.00 10.00 0.00 9.00 L 0.00 5.00 Q 0.00 4.00 0.71 3.29 L 3.29 0.71 Q 4.00 0.00 4.71 0.71 Z" fill="#7F7F7F"/>
	<path d="M 3.57 0.98 L 5.43 2.85 Q 6.00 3.41 6.00 4.21 L 6.00 7.20 Q 6.00 8.00 5.20 8.00 L 0.80 8.00 Q 0.00 8.00 0.00 7.20 L 0.00 4.21 Q 0.00 3.41 0.57 2.85 L 2.43 0.98 Q 3.00 0.41 3.57 0.98 Z" fill="#1c1c26" transform="translate(1, 1)"/>
</g>
</g>
<g class="node" data-id="f038da46-8db9-4e89-b625-c392fabc1958">
<rect x="1310.0000130516112" y="180.0000052206445" width="99.9999738967775" height="39.999989558711" rx="20" fill="#1c1c26"/>
<rect x="1310.0000130516112" y="180.0000052206445" width="99.9999738967775" height="39.999989558711" rx="20" fill="none" stroke="#7F7F7F" stroke-width="1"/>
<text x="1360" y="196" text-anchor="middle" dominant-baseline="middle" fill="#0070C0" font-size="10" font-weight="600" font-family="system-ui, -apple-system, sans-serif">Err-2 and PI-2</text>
<text x="1360" y="208" text-anchor="middle" dominant-baseline="middle" fill="#808090" font-size="8" font-family="system-ui, -apple-system, sans-serif">Scope</text>
<g transform="translate(1346.00, 214.33)">
	<path d="M 4.71 0.71 L 7.29 3.29 Q 8.00 4.00 8.00 5.00 L 8.00 9.00 Q 8.00 10.00 7.00 10.00 L 1.00 10.00 Q 0.00 10.00 0.00 9.00 L 0.00 5.00 Q 0.00 4.00 0.71 3.29 L 3.29 0.71 Q 4.00 0.00 4.71 0.71 Z" fill="#7F7F7F"/>
	<path d="M 3.57 0.98 L 5.43 2.85 Q 6.00 3.41 6.00 4.21 L 6.00 7.20 Q 6.00 8.00 5.20 8.00 L 0.80 8.00 Q 0.00 8.00 0.00 7.20 L 0.00 4.21 Q 0.00 3.41 0.57 2.85 L 2.43 0.98 Q 3.00 0.41 3.57 0.98 Z" fill="#1c1c26" transform="translate(1, 1)"/>
</g>
<g transform="translate(1366.00, 214.33)">
	<path d="M 4.71 0.71 L 7.29 3.29 Q 8.00 4.00 8.00 5.00 L 8.00 9.00 Q 8.00 10.00 7.00 10.00 L 1.00 10.00 Q 0.00 10.00 0.00 9.00 L 0.00 5.00 Q 0.00 4.00 0.71 3.29 L 3.29 0.71 Q 4.00 0.00 4.71 0.71 Z" fill="#7F7F7F"/>
	<path d="M 3.57 0.98 L 5.43 2.85 Q 6.00 3.41 6.00 4.21 L 6.00 7.20 Q 6.00 8.00 5.20 8.00 L 0.80 8.00 Q 0.00 8.00 0.00 7.20 L 0.00 4.21 Q 0.00 3.41 0.57 2.85 L 2.43 0.98 Q 3.00 0.41 3.57 0.98 Z" fill="#1c1c26" transform="translate(1, 1)"/>
</g>
</g>
</g>
</svg>