<?xml version="1.0" encoding="UTF-8"?>
<svg xmlns="http://www.w3.org/2000/svg" width="869.9997631919921" height="279.9998860919103" viewBox="-449.99987648002633 240.00004991958644 869.9997631919921 279.9998860919103">
<g class="edges">
<g class="edge"><path d="M53.833079760224365 379.99994983239134L73.83307976022436 379.99994983239134L102.49988576244182 379.99994983239134L102.49988576244182 379.99994983239134L131.16669176465928 379.99994983239134L151.16669176465928 379.99994983239134" fill="none" stroke="#7F7F7F" stroke-width="1.5"/><g transform="translate(151.16668701171875, 379.99993896484375) rotate(0) translate(5, 0)"><path d="M -5 -2.5 L -1 -0.5 Q 0 0 -1 0.5 L -5 2.5 Q -6 3 -6 2 L -6 -2 Q -6 -3 -5 -2.5 Z" fill="#7F7F7F"/></g></g>
<g class="edge"><path d="M-360.0001160940413 323.8332730047266L-360.0001160940413 343.8332730047266L -360.0001160940413,361.9999888611014Q -360.0001160940413,369.9999888611014 -352.0001160940413,369.9999888611014L-78.83334916309872 369.9999888611014L-58.833349163098724 369.9999888611014" fill="none" stroke="#7F7F7F" stroke-width="1.5"/><g transform="translate(-58.833351135253906, 370) rotate(0) translate(5, 0)"><path d="M -5 -2.5 L -1 -0.5 Q 0 0 -1 0.5 L -5 2.5 Q -6 3 -6 2 L -6 -2 Q -6 -3 -5 -2.5 Z" fill="#7F7F7F"/></g></g>
<g class="edge"><path d="M-166.16689977589664 439.9999293685123L-146.16689977589664 439.9999293685123L -120.50012446949768,439.9999293685123Q -112.50012446949768,439.9999293685123 -112.50012446949768,431.9999293685123L -112.50012446949768,397.9999312675603Q -112.50012446949768,389.9999312675603 -104.50012446949768,389.9999312675603L-78.83334916309872 389.9999312675603L-58.833349163098724 389.9999312675603" fill="none" stroke="#7F7F7F" stroke-width="1.5"/><g transform="translate(-58.833351135253906, 389.99993896484375) rotate(0) translate(5, 0)"><path d="M -5 -2.5 L -1 -0.5 Q 0 0 -1 0.5 L -5 2.5 Q -6 3 -6 2 L -6 -2 Q -6 -3 -5 -2.5 Z" fill="#7F7F7F"/></g></g>
<g class="edge"><path d="M53.833079760224365 379.99994983239134L73.83307976022436 379.99994983239134L 81.99993506565625,379.99994983239134Q 89.99993506565625,379.99994983239134 89.99993506565625,371.99994983239134L89.99993506565625 348.8332730047266L89.99993506565625 328.8332730047266" fill="none" stroke="#7F7F7F" stroke-width="1.5"/><g transform="translate(89.99993133544922, 328.8332824707031) rotate(-90) translate(5, 0)"><path d="M -5 -2.5 L -1 -0.5 Q 0 0 -1 0.5 L -5 2.5 Q -6 3 -6 2 L -6 -2 Q -6 -3 -5 -2.5 Z" fill="#7F7F7F"/></g></g>
<g class="edge"><path d="M-360.0001160940413 323.8332730047266L-360.0001160940413 328.8332730047266L -360.0001160940413,340.8332730047266Q -360.0001160940413,348.8332730047266 -352.0001160940413,348.8332730047266L -158.00010586210178,348.8332730047266Q -150.00010586210178,348.8332730047266 -150.00010586210178,340.8332730047266L-150.00010586210178 328.8332730047266" fill="none" stroke="#7F7F7F" stroke-width="1.5"/><g transform="translate(-150.00010681152344, 328.8332824707031) rotate(-90) translate(5, 0)"><path d="M -5 -2.5 L -1 -0.5 Q 0 0 -1 0.5 L -5 2.5 Q -6 3 -6 2 L -6 -2 Q -6 -3 -5 -2.5 Z" fill="#7F7F7F"/></g></g>
<g class="edge"><path d="M-360.0001160940413 323.8332730047266L-360.0001160940413 343.8332730047266L -360.0001160940413,431.9999293685123Q -360.0001160940413,439.9999293685123 -352.0001160940413,439.9999293685123L-298.8333286992197 439.9999293685123L-278.8333286992197 439.9999293685123" fill="none" stroke="#7F7F7F" stroke-width="1.5"/><g transform="translate(-278.8333435058594, 439.99993896484375) rotate(0) translate(5, 0)"><path d="M -5 -2.5 L -1 -0.5 Q 0 0 -1 0.5 L -5 2.5 Q -6 3 -6 2 L -6 -2 Q -6 -3 -5 -2.5 Z" fill="#7F7F7F"/></g></g>
<g class="edge"><path d="M263.8331616157404 379.99994983239134L283.8331616157404 379.99994983239134L 321.99993506565625,379.99994983239134Q 329.99993506565625,379.99994983239134 329.99993506565625,371.99994983239134L329.99993506565625 348.8332730047266L329.99993506565625 328.8332730047266" fill="none" stroke="#7F7F7F" stroke-width="1.5"/><g transform="translate(329.99993896484375, 328.8332824707031) rotate(-90) translate(5, 0)"><path d="M -5 -2.5 L -1 -0.5 Q 0 0 -1 0.5 L -5 2.5 Q -6 3 -6 2 L -6 -2 Q -6 -3 -5 -2.5 Z" fill="#7F7F7F"/></g></g>
<g class="edge"><path d="M53.833079760224365 379.99994983239134L73.83307976022436 379.99994983239134L 81.99993506565625,379.99994983239134Q 89.99993506565625,379.99994983239134 89.99993506565625,387.99994983239134L89.99993506565625 411.1666917646593L89.99993506565625 431.1666917646593" fill="none" stroke="#7F7F7F" stroke-width="1.5"/><g transform="translate(89.99993133544922, 431.16668701171875) rotate(90) translate(5, 0)"><path d="M -5 -2.5 L -1 -0.5 Q 0 0 -1 0.5 L -5 2.5 Q -6 3 -6 2 L -6 -2 Q -6 -3 -5 -2.5 Z" fill="#7F7F7F"/></g></g>
<g class="edge"><path d="M263.8331616157404 379.99994983239134L283.8331616157404 379.99994983239134L 321.99993506565625,379.99994983239134Q 329.99993506565625,379.99994983239134 329.99993506565625,387.99994983239134L329.99993506565625 411.1666917646593L329.99993506565625 431.1666917646593" fill="none" stroke="#7F7F7F" stroke-width="1.5"/><g transform="translate(329.99993896484375, 431.16668701171875) rotate(90) translate(5, 0)"><path d="M -5 -2.5 L -1 -0.5 Q 0 0 -1 0.5 L -5 2.5 Q -6 3 -6 2 L -6 -2 Q -6 -3 -5 -2.5 Z" fill="#7F7F7F"/></g></g>
</g>
<g class="nodes">
<g class="node" data-id="fa979db8-e683-4aa0-a197-d02c3d61f4c6">
<rect x="-49.999861132117054" y="360.00004991958644" width="99.99972226423411" height="39.999900160827096" rx="4" fill="#ffffff"/>
<rect x="-49.999861132117054" y="360.00004991958644" width="99.99972226423411" height="39.999900160827096" rx="4" fill="none" stroke="#7F7F7F" stroke-width="1"/>
<text x="0" y="376" text-anchor="middle" dominant-baseline="middle" fill="#0070C0" font-size="10" font-weight="600" font-family="system-ui, -apple-system, sans-serif">Mixer</text>
<text x="0" y="388" text-anchor="middle" dominant-baseline="middle" fill="#606068" font-size="8" font-family="system-ui, -apple-system, sans-serif">Multiplier</text>
<g transform="translate(-54.33, 366.00)">
	<path d="M 1.00 0.00 L 5.00 0.00 Q 6.00 0.00 6.71 0.71 L 9.29 3.29 Q 10.00 4.00 9.29 4.71 L 6.71 7.29 Q 6.00 8.00 5.00 8.00 L 1.00 8.00 Q 0.00 8.00 0.00 7.00 L 0.00 1.00 Q 0.00 0.00 1.00 0.00 Z" fill="#7F7F7F"/>
	<path d="M 0.80 0.00 L 3.79 0.00 Q 4.59 0.00 5.15 0.57 L 7.02 2.43 Q 7.59 3.00 7.02 3.57 L 5.15 5.43 Q 4.59 6.00 3.79 6.00 L 0.80 6.00 Q 0.00 6.00 0.00 5.20 L 0.00 0.80 Q 0.00 0.00 0.80 0.00 Z" fill="#ffffff" transform="translate(1, 1)"/>
</g>
<g transform="translate(-54.33, 386.00)">
	<path d="M 1.00 0.00 L 5.00 0.00 Q 6.00 0.00 6.71 0.71 L 9.29 3.29 Q 10.00 4.00 9.29 4.71 L 6.71 7.29 Q 6.00 8.00 5.00 8.00 L 1.00 8.00 Q 0.00 8.00 0.00 7.00 L 0.00 1.00 Q 0.00 0.00 1.00 0.00 Z" fill="#7F7F7F"/>
	<path d="M 0.80 0.00 L 3.79 0.00 Q 4.59 0.00 5.15 0.57 L 7.02 2.43 Q 7.59 3.00 7.02 3.57 L 5.15 5.43 Q 4.59 6.00 3.79 6.00 L 0.80 6.00 Q 0.00 6.00 0.00 5.20 L 0.00 0.80 Q 0.00 0.00 0.80 0.00 Z" fill="#ffffff" transform="translate(1, 1)"/>
</g>
<g transform="translate(44.33, 376.00)">
	<path d="M 1.00 0.00 L 5.00 0.00 Q 6.00 0.00 6.71 0.71 L 9.29 3.29 Q 10.00 4.00 9.29 4.71 L 6.71 7.29 Q 6.00 8.00 5.00 8.00 L 1.00 8.00 Q 0.00 8.00 0.00 7.00 L 0.00 1.00 Q 0.00 0.00 1.00 0.00 Z" fill="#7F7F7F"/>
	<path d="M 0.80 0.00 L 3.79 0.00 Q 4.59 0.00 5.15 0.57 L 7.02 2.43 Q 7.59 3.00 7.02 3.57 L 5.15 5.43 Q 4.59 6.00 3.79 6.00 L 0.80 6.00 Q 0.00 6.00 0.00 5.20 L 0.00 0.80 Q 0.00 0.00 0.80 0.00 Z" fill="#ffffff" transform="translate(1, 1)"/>
</g>
</g>
<g class="node" data-id="661af18b-ddc2-4fc8-8954-a88645711e7e">
<rect x="160.00013886788295" y="360.00004991958644" width="99.99972226423411" height="39.999900160827096" rx="4" fill="#ffffff"/>
<rect x="160.00013886788295" y="360.00004991958644" width="99.99972226423411" height="39.999900160827096" rx="4" fill="none" stroke="#7F7F7F" stroke-width="1"/>
<text x="210" y="376" text-anchor="middle" dominant-baseline="middle" fill="#0070C0" font-size="10" font-weight="600" font-family="system-ui, -apple-system, sans-serif">LPF</text>
<text x="210" y="388" text-anchor="middle" dominant-baseline="middle" fill="#606068" font-size="8" font-family="system-ui, -apple-system, sans-serif">ButterworthLowpassFilter</text>
<g transform="translate(155.67, 376.00)">
	<path d="M 1.00 0.00 L 5.00 0.00 Q 6.00 0.00 6.71 0.71 L 9.29 3.29 Q 10.00 4.00 9.29 4.71 L 6.71 7.29 Q 6.00 8.00 5.00 8.00 L 1.00 8.00 Q 0.00 8.00 0.00 7.00 L 0.00 1.00 Q 0.00 0.00 1.00 0.00 Z" fill="#7F7F7F"/>
	<path d="M 0.80 0.00 L 3.79 0.00 Q 4.59 0.00 5.15 0.57 L 7.02 2.43 Q 7.59 3.00 7.02 3.57 L 5.15 5.43 Q 4.59 6.00 3.79 6.00 L 0.80 6.00 Q 0.00 6.00 0.00 5.20 L 0.00 0.80 Q 0.00 0.00 0.80 0.00 Z" fill="#ffffff" transform="translate(1, 1)"/>
</g>
<g transform="translate(254.33, 376.00)">
	<path d="M 1.00 0.00 L 5.00 0.00 Q 6.00 0.00 6.71 0.71 L 9.29 3.29 Q 10.00 4.00 9.29 4.71 L 6.71 7.29 Q 6.00 8.00 5.00 8.00 L 1.00 8.00 Q 0.00 8.00 0.00 7.00 L 0.00 1.00 Q 0.00 0.00 1.00 0.00 Z" fill="#7F7F7F"/>
	<path d="M 0.80 0.00 L 3.79 0.00 Q 4.59 0.00 5.15 0.57 L 7.02 2.43 Q 7.59 3.00 7.02 3.57 L 5.15 5.43 Q 4.59 6.00 3.79 6.00 L 0.80 6.00 Q 0.00 6.00 0.00 5.20 L 0.00 0.80 Q 0.00 0.00 0.80 0.00 Z" fill="#ffffff" transform="translate(1, 1)"/>
</g>
</g>
<g class="node" data-id="7d36e8ff-a73f-4105-b908-fa4670cc96a9">
<rect x="40.000113288034186" y="280.00004991958644" width="99.99977342393163" height="39.999900160827096" rx="20" fill="#ffffff"/>
<rect x="40.000113288034186" y="280.00004991958644" width="99.99977342393163" height="39.999900160827096" rx="20" fill="none" stroke="#7F7F7F" stroke-width="1"/>
<text x="90" y="296" text-anchor="middle" dominant-baseline="middle" fill="#0070C0" font-size="10" font-weight="600" font-family="system-ui, -apple-system, sans-serif">Mixer</text>
<text x="90" y="308" text-anchor="middle" dominant-baseline="middle" fill="#606068" font-size="8" font-family="system-ui, -apple-system, sans-serif">Spectrum</text>
<g transform="translate(86.00, 314.33)">
	<path d="M 4.71 0.71 L 7.29 3.29 Q 8.00 4.00 8.00 5.00 L 8.00 9.00 Q 8.00 10.00 7.00 10.00 L 1.00 10.00 Q 0.00 10.00 0.00 9.00 L 0.00 5.00 Q 0.00 4.00 0.71 3.29 L 3.29 0.71 Q 4.00 0.00 4.71 0.71 Z" fill="#7F7F7F"/>
	<path d="M 3.57 0.98 L 5.43 2.85 Q 6.00 3.41 6.00 4.21 L 6.00 7.20 Q 6.00 8.00 5.20 8.00 L 0.80 8.00 Q 0.00 8.00 0.00 7.20 L 0.00 4.21 Q 0.00 3.41 0.57 2.85 L 2.43 0.98 Q 3.00 0.41 3.57 0.98 Z" fill="#ffffff" transform="translate(1, 1)"/>
</g>
</g>
<g class="node" data-id="4b645485-b3ca-4fc7-9f46-c25664468bec">
<rect x="-269.99987648002633" y="420.00004991958644" width="99.99975296005262" height="39.999900160827096" rx="4" fill="#ffffff"/>
<rect x="-269.99987648002633" y="420.00004991958644" width="99.99975296005262" height="39.999900160827096" rx="4" fill="none" stroke="#7F7F7F" stroke-width="1"/>
<text x="-220.00000000000003" y="436" text-anchor="middle" dominant-baseline="middle" fill="#0070C0" font-size="10" font-weight="600" font-family="system-ui, -apple-system, sans-serif">Freespace</text>
<text x="-220.00000000000003" y="448" text-anchor="middle" dominant-baseline="middle" fill="#606068" font-size="8" font-family="system-ui, -apple-system, sans-serif">Delay</text>
<g transform="translate(-274.33, 436.00)">
	<path d="M 1.00 0.00 L 5.00 0.00 Q 6.00 0.00 6.71 0.71 L 9.29 3.29 Q 10.00 4.00 9.29 4.71 L 6.71 7.29 Q 6.00 8.00 5.00 8.00 L 1.00 8.00 Q 0.00 8.00 0.00 7.00 L 0.00 1.00 Q 0.00 0.00 1.00 0.00 Z" fill="#7F7F7F"/>
	<path d="M 0.80 0.00 L 3.79 0.00 Q 4.59 0.00 5.15 0.57 L 7.02 2.43 Q 7.59 3.00 7.02 3.57 L 5.15 5.43 Q 4.59 6.00 3.79 6.00 L 0.80 6.00 Q 0.00 6.00 0.00 5.20 L 0.00 0.80 Q 0.00 0.00 0.80 0.00 Z" fill="#ffffff" transform="translate(1, 1)"/>
</g>
<g transform="translate(-175.67, 436.00)">
	<path d="M 1.00 0.00 L 5.00 0.00 Q 6.00 0.00 6.71 0.71 L 9.29 3.29 Q 10.00 4.00 9.29 4.71 L 6.71 7.29 Q 6.00 8.00 5.00 8.00 L 1.00 8.00 Q 0.00 8.00 0.00 7.00 L 0.00 1.00 Q 0.00 0.00 1.00 0.00 Z" fill="#7F7F7F"/>
	<path d="M 0.80 0.00 L 3.79 0.00 Q 4.59 0.00 5.15 0.57 L 7.02 2.43 Q 7.59 3.00 7.02 3.57 L 5.15 5.43 Q 4.59 6.00 3.79 6.00 L 0.80 6.00 Q 0.00 6.00 0.00 5.20 L 0.00 0.80 Q 0.00 0.00 0.80 0.00 Z" fill="#ffffff" transform="translate(1, 1)"/>
</g>
</g>
<g class="node" data-id="f329e608-39f5-4ce8-b1fe-448abf3e8549">
<rect x="-409.99987648002633" y="280.00004991958644" width="99.99975296005262" height="39.999900160827096" rx="20" fill="#ffffff"/>
<rect x="-409.99987648002633" y="280.00004991958644" width="99.99975296005262" height="39.999900160827096" rx="20" fill="none" stroke="#7F7F7F" stroke-width="1"/>
<text x="-360" y="296" text-anchor="middle" dominant-baseline="middle" fill="#0070C0" font-size="10" font-weight="600" font-family="system-ui, -apple-system, sans-serif">Chirp</text>
<text x="-360" y="308" text-anchor="middle" dominant-baseline="middle" fill="#606068" font-size="8" font-family="system-ui, -apple-system, sans-serif">ChirpPhaseNoiseSource</text>
<g transform="translate(-364.00, 314.33)">
	<path d="M 1.00 0.00 L 7.00 0.00 Q 8.00 0.00 8.00 1.00 L 8.00 5.00 Q 8.00 6.00 7.29 6.71 L 4.71 9.29 Q 4.00 10.00 3.29 9.29 L 0.71 6.71 Q 0.00 6.00 0.00 5.00 L 0.00 1.00 Q 0.00 0.00 1.00 0.00 Z" fill="#7F7F7F"/>
	<path d="M 0.80 0.00 L 5.20 0.00 Q 6.00 0.00 6.00 0.80 L 6.00 3.79 Q 6.00 4.59 5.43 5.15 L 3.57 7.02 Q 3.00 7.59 2.43 7.02 L 0.57 5.15 Q 0.00 4.59 0.00 3.79 L 0.00 0.80 Q 0.00 0.00 0.80 0.00 Z" fill="#ffffff" transform="translate(1, 1)"/>
</g>
</g>
<g class="node" data-id="be80dd03-99b0-4e75-b26e-4fcc65965da4">
<rect x="-199.9998764800263" y="280.00004991958644" width="99.99975296005262" height="39.999900160827096" rx="20" fill="#ffffff"/>
<rect x="-199.9998764800263" y="280.00004991958644" width="99.99975296005262" height="39.999900160827096" rx="20" fill="none" stroke="#7F7F7F" stroke-width="1"/>
<text x="-150" y="296" text-anchor="middle" dominant-baseline="middle" fill="#0070C0" font-size="10" font-weight="600" font-family="system-ui, -apple-system, sans-serif">Chirp</text>
<text x="-150" y="308" text-anchor="middle" dominant-baseline="middle" fill="#606068" font-size="8" font-family="system-ui, -apple-system, sans-serif">Spectrum</text>
<g transform="translate(-154.00, 314.33)">
	<path d="M 4.71 0.71 L 7.29 3.29 Q 8.00 4.00 8.00 5.00 L 8.00 9.00 Q 8.00 10.00 7.00 10.00 L 1.00 10.00 Q 0.00 10.00 0.00 9.00 L 0.00 5.00 Q 0.00 4.00 0.71 3.29 L 3.29 0.71 Q 4.00 0.00 4.71 0.71 Z" fill="#7F7F7F"/>
	<path d="M 3.57 0.98 L 5.43 2.85 Q 6.00 3.41 6.00 4.21 L 6.00 7.20 Q 6.00 8.00 5.20 8.00 L 0.80 8.00 Q 0.00 8.00 0.00 7.20 L 0.00 4.21 Q 0.00 3.41 0.57 2.85 L 2.43 0.98 Q 3.00 0.41 3.57 0.98 Z" fill="#ffffff" transform="translate(1, 1)"/>
</g>
</g>
<g class="node" data-id="fe53f02d-f62f-40cf-8005-680c2432ccdb">
<rect x="280.0001132880342" y="280.00004991958644" width="99.99977342393163" height="39.999900160827096" rx="20" fill="#ffffff"/>
<rect x="280.0001132880342" y="280.00004991958644" width="99.99977342393163" height="39.999900160827096" rx="20" fill="none" stroke="#7F7F7F" stroke-width="1"/>
<text x="330" y="296" text-anchor="middle" dominant-baseline="middle" fill="#0070C0" font-size="10" font-weight="600" font-family="system-ui, -apple-system, sans-serif">LPF</text>
<text x="330" y="308" text-anchor="middle" dominant-baseline="middle" fill="#606068" font-size="8" font-family="system-ui, -apple-system, sans-serif">Spectrum</text>
<g transform="translate(326.00, 314.33)">
	<path d="M 4.71 0.71 L 7.29 3.29 Q 8.00 4.00 8.00 5.00 L 8.00 9.00 Q 8.00 10.00 7.00 10.00 L 1.00 10.00 Q 0.00 10.00 0.00 9.00 L 0.00 5.00 Q 0.00 4.00 0.71 3.29 L 3.29 0.71 Q 4.00 0.00 4.71 0.71 Z" fill="#7F7F7F"/>
	<path d="M 3.57 0.98 L 5.43 2.85 Q 6.00 3.41 6.00 4.21 L 6.00 7.20 Q 6.00 8.00 5.20 8.00 L 0.80 8.00 Q 0.00 8.00 0.00 7.20 L 0.00 4.21 Q 0.00 3.41 0.57 2.85 L 2.43 0.98 Q 3.00 0.41 3.57 0.98 Z" fill="#ffffff" transform="translate(1, 1)"/>
</g>
</g>
<g class="node" data-id="36d93d54-1fa3-483b-868a-500badcea957">
<rect x="40.000113288034186" y="440.00006398850326" width="99.99977342393163" height="39.999872022993465" rx="20" fill="#ffffff"/>
<rect x="40.000113288034186" y="440.00006398850326" width="99.99977342393163" height="39.999872022993465" rx="20" fill="none" stroke="#7F7F7F" stroke-width="1"/>
<text x="90" y="456" text-anchor="middle" dominant-baseline="middle" fill="#0070C0" font-size="10" font-weight="600" font-family="system-ui, -apple-system, sans-serif">Mixer</text>
<text x="90" y="468" text-anchor="middle" dominant-baseline="middle" fill="#606068" font-size="8" font-family="system-ui, -apple-system, sans-serif">Scope</text>
<g transform="translate(86.00, 435.67)">
	<path d="M 1.00 0.00 L 7.00 0.00 Q 8.00 0.00 8.00 1.00 L 8.00 5.00 Q 8.00 6.00 7.29 6.71 L 4.71 9.29 Q 4.00 10.00 3.29 9.29 L 0.71 6.71 Q 0.00 6.00 0.00 5.00 L 0.00 1.00 Q 0.00 0.00 1.00 0.00 Z" fill="#7F7F7F"/>
	<path d="M 0.80 0.00 L 5.20 0.00 Q 6.00 0.00 6.00 0.80 L 6.00 3.79 Q 6.00 4.59 5.43 5.15 L 3.57 7.02 Q 3.00 7.59 2.43 7.02 L 0.57 5.15 Q 0.00 4.59 0.00 3.79 L 0.00 0.80 Q 0.00 0.00 0.80 0.00 Z" fill="#ffffff" transform="translate(1, 1)"/>
</g>
</g>
<g class="node" data-id="4a8118b9-67cb-4cd6-8146-d2b3a52aadfa">
<rect x="280.0001132880342" y="440.00006398850326" width="99.99977342393163" height="39.999872022993465" rx="20" fill="#ffffff"/>
<rect x="280.0001132880342" y="440.00006398850326" width="99.99977342393163" height="39.999872022993465" rx="20" fill="none" stroke="#7F7F7F" stroke-width="1"/>
<text x="330" y="456" text-anchor="middle" dominant-baseline="middle" fill="#0070C0" font-size="10" font-weight="600" font-family="system-ui, -apple-system, sans-serif">LPF</text>
<text x="330" y="468" text-anchor="middle" dominant-baseline="middle" fill="#606068" font-size="8" font-family="system-ui, -apple-system, sans-serif">Scope</text>
<g transform="translate(326.00, 435.67)">
	<path d="M 1.00 0.00 L 7.00 0.00 Q 8.00 0.00 8.00 1.00 L 8.00 5.00 Q 8.00 6.00 7.29 6.71 L 4.71 9.29 Q 4.00 10.00 3.29 9.29 L 0.71 6.71 Q 0.00 6.00 0.00 5.00 L 0.00 1.00 Q 0.00 0.00 1.00 0.00 Z" fill="#7F7F7F"/>
	<path d="M 0.80 0.00 L 5.20 0.00 Q 6.00 0.00 6.00 0.80 L 6.00 3.79 Q 6.00 4.59 5.43 5.15 L 3.57 7.02 Q 3.00 7.59 2.43 7.02 L 0.57 5.15 Q 0.00 4.59 0.00 3.79 L 0.00 0.80 Q 0.00 0.00 0.80 0.00 Z" fill="#ffffff" transform="translate(1, 1)"/>
</g>
</g>
</g>
</svg>