<?xml version="1.0" encoding="UTF-8"?>
<svg xmlns="http://www.w3.org/2000/svg" width="569.9997463995395" height="499.99989321463653" viewBox="300.0001425213459 80.00004946240284 569.9997463995395 499.99989321463653">
<g class="edges">
<g class="edge"><path d="M443.83321412417996 219.99997054262855L463.83321412417996 219.99997054262855L497.4999372177846 219.99997054262855L497.4999372177846 219.99997054262855L531.1666603113893 219.99997054262855L551.1666603113893 219.99997054262855" fill="none" stroke="#7F7F7F" stroke-width="1.5"/><g transform="translate(551.1666870117188, 219.99996948242188) rotate(0) translate(5, 0)"><path d="M -5 -2.5 L -1 -0.5 Q 0 0 -1 0.5 L -5 2.5 Q -6 3 -6 2 L -6 -2 Q -6 -3 -5 -2.5 Z" fill="#7F7F7F"/></g></g>
<g class="edge"><path d="M663.8331682575702 219.99997054262855L683.8331682575702 219.99997054262855L 711.9998981100784,219.99997054262855Q 719.9998981100784,219.99997054262855 719.9998981100784,227.99997054262855L719.9998981100784 241.16668324469407L719.9998981100784 261.16668324469407" fill="none" stroke="#7F7F7F" stroke-width="1.5"/><g transform="translate(719.9998779296875, 261.16668701171875) rotate(90) translate(5, 0)"><path d="M -5 -2.5 L -1 -0.5 Q 0 0 -1 0.5 L -5 2.5 Q -6 3 -6 2 L -6 -2 Q -6 -3 -5 -2.5 Z" fill="#7F7F7F"/></g></g>
<g class="edge"><path d="M719.9998981100784 313.8333131226704L719.9998981100784 333.8333131226704L 719.9998981100784,338.16666138650254Q 719.9998981100784,342.5000096503347 715.6665498462463,342.5000096503347L 674.333268096337,342.5000096503347Q 669.9999198325048,342.5000096503347 669.9999198325048,346.8333579141668L669.9999198325048 351.16670617799895L669.9999198325048 371.16670617799895" fill="none" stroke="#7F7F7F" stroke-width="1.5"/><g transform="translate(669.9999389648438, 371.1667175292969) rotate(90) translate(5, 0)"><path d="M -5 -2.5 L -1 -0.5 Q 0 0 -1 0.5 L -5 2.5 Q -6 3 -6 2 L -6 -2 Q -6 -3 -5 -2.5 Z" fill="#7F7F7F"/></g></g>
<g class="edge"><path d="M600.0000357099077 313.8333131226704L600.0000357099077 333.8333131226704L 600.0000357099077,338.16666138650254Q 600.0000357099077,342.5000096503347 604.3333839737398,342.5000096503347L 645.6666198570394,342.5000096503347Q 649.9999681208716,342.5000096503347 649.9999681208716,346.8333579141668L649.9999681208716 351.16670617799895L649.9999681208716 371.16670617799895" fill="none" stroke="#7F7F7F" stroke-width="1.5"/><g transform="translate(649.9999389648438, 371.1667175292969) rotate(90) translate(5, 0)"><path d="M -5 -2.5 L -1 -0.5 Q 0 0 -1 0.5 L -5 2.5 Q -6 3 -6 2 L -6 -2 Q -6 -3 -5 -2.5 Z" fill="#7F7F7F"/></g></g>
<g class="edge"><path d="M443.83321412417996 219.99997054262855L463.83321412417996 219.99997054262855L 471.9999681208716,219.99997054262855Q 479.9999681208716,219.99997054262855 479.9999681208716,227.99997054262855L479.9999681208716 371.1666603113892L479.9999681208716 391.1666603113892" fill="none" stroke="#7F7F7F" stroke-width="1.5"/><g transform="translate(479.9999694824219, 391.1666564941406) rotate(90) translate(5, 0)"><path d="M -5 -2.5 L -1 -0.5 Q 0 0 -1 0.5 L -5 2.5 Q -6 3 -6 2 L -6 -2 Q -6 -3 -5 -2.5 Z" fill="#7F7F7F"/></g></g>
<g class="edge"><path d="M659.9998981100784 423.8333131226704L 659.9998981100784,435.8333131226704Q 659.9998981100784,443.8333131226704 651.9998981100784,443.8333131226704L 587.9999319045965,443.8333131226704Q 579.9999319045965,443.8333131226704 579.9999319045965,435.8333131226704L 579.9999319045965,379.1666603113892Q 579.9999319045965,371.1666603113892 571.9999319045965,371.1666603113892L 507.99996569911457,371.1666603113892Q 499.99996569911457,371.1666603113892 499.99996569911457,379.1666603113892L499.99996569911457 391.1666603113892" fill="none" stroke="#7F7F7F" stroke-width="1.5"/><g transform="translate(499.9999694824219, 391.1666564941406) rotate(90) translate(5, 0)"><path d="M -5 -2.5 L -1 -0.5 Q 0 0 -1 0.5 L -5 2.5 Q -6 3 -6 2 L -6 -2 Q -6 -3 -5 -2.5 Z" fill="#7F7F7F"/></g></g>
<g class="edge"><path d="M489.9999439766882 443.8333131226704L489.9999439766882 463.8333131226704L489.9999439766882 463.8333131226704L489.9999439766882 451.1666144447795L489.9999439766882 451.1666144447795L489.9999439766882 471.1666144447795" fill="none" stroke="#7F7F7F" stroke-width="1.5"/><g transform="translate(489.99993896484375, 471.1666259765625) rotate(90) translate(5, 0)"><path d="M -5 -2.5 L -1 -0.5 Q 0 0 -1 0.5 L -5 2.5 Q -6 3 -6 2 L -6 -2 Q -6 -3 -5 -2.5 Z" fill="#7F7F7F"/></g></g>
<g class="edge"><path d="M489.9999439766882 523.8332672560607L 489.9999439766882,535.8332672560607Q 489.9999439766882,543.8332672560607 497.9999439766882,543.8332672560607L 621.99995604878,543.8332672560607Q 629.99995604878,543.8332672560607 629.99995604878,535.8332672560607L 629.99995604878,479.1666603113892Q 629.99995604878,471.1666603113892 637.99995604878,471.1666603113892L 761.9999681208716,471.1666603113892Q 769.9999681208716,471.1666603113892 769.9999681208716,479.1666603113892L769.9999681208716 491.1666603113892" fill="none" stroke="#7F7F7F" stroke-width="1.5"/><g transform="translate(769.9999389648438, 491.1666564941406) rotate(90) translate(5, 0)"><path d="M -5 -2.5 L -1 -0.5 Q 0 0 -1 0.5 L -5 2.5 Q -6 3 -6 2 L -6 -2 Q -6 -3 -5 -2.5 Z" fill="#7F7F7F"/></g></g>
<g class="edge"><path d="M663.8331682575702 219.99997054262855L683.8331682575702 219.99997054262855L 781.9999198325048,219.99997054262855Q 789.9999198325048,219.99997054262855 789.9999198325048,227.99997054262855L789.9999198325048 471.1666603113892L789.9999198325048 491.1666603113892" fill="none" stroke="#7F7F7F" stroke-width="1.5"/><g transform="translate(789.9999389648438, 491.1666564941406) rotate(90) translate(5, 0)"><path d="M -5 -2.5 L -1 -0.5 Q 0 0 -1 0.5 L -5 2.5 Q -6 3 -6 2 L -6 -2 Q -6 -3 -5 -2.5 Z" fill="#7F7F7F"/></g></g>
<g class="edge"><path d="M779.9998981100784 543.8333131226705L 779.9998981100784,555.8333131226705Q 779.9998981100784,563.8333131226705 771.9998981100784,563.8333131226705L 319.16670617799895,563.8333131226705Q 311.16670617799895,563.8333131226705 311.16670617799895,555.8333131226705L 311.16670617799895,227.99997054262855Q 311.16670617799895,219.99997054262855 319.16670617799895,219.99997054262855L331.16670617799895 219.99997054262855" fill="none" stroke="#7F7F7F" stroke-width="1.5"/><g transform="translate(331.1667175292969, 219.99996948242188) rotate(0) translate(5, 0)"><path d="M -5 -2.5 L -1 -0.5 Q 0 0 -1 0.5 L -5 2.5 Q -6 3 -6 2 L -6 -2 Q -6 -3 -5 -2.5 Z" fill="#7F7F7F"/></g></g>
<g class="edge"><path d="M663.8331682575702 219.99997054262855L683.8331682575702 219.99997054262855L 711.9998981100784,219.99997054262855Q 719.9998981100784,219.99997054262855 719.9998981100784,211.99997054262855L719.9998981100784 188.83329018936553L719.9998981100784 168.83329018936553" fill="none" stroke="#7F7F7F" stroke-width="1.5"/><g transform="translate(719.9998779296875, 168.8332977294922) rotate(-90) translate(5, 0)"><path d="M -5 -2.5 L -1 -0.5 Q 0 0 -1 0.5 L -5 2.5 Q -6 3 -6 2 L -6 -2 Q -6 -3 -5 -2.5 Z" fill="#7F7F7F"/></g></g>
<g class="edge"><path d="M443.83321412417996 219.99997054262855L463.83321412417996 219.99997054262855L 471.99998984329795,219.99997054262855Q 479.99998984329795,219.99997054262855 479.99998984329795,211.99997054262855L479.99998984329795 188.83329018936553L479.99998984329795 168.83329018936553" fill="none" stroke="#7F7F7F" stroke-width="1.5"/><g transform="translate(480, 168.8332977294922) rotate(-90) translate(5, 0)"><path d="M -5 -2.5 L -1 -0.5 Q 0 0 -1 0.5 L -5 2.5 Q -6 3 -6 2 L -6 -2 Q -6 -3 -5 -2.5 Z" fill="#7F7F7F"/></g></g>
</g>
<g class="nodes">
<g class="node" data-id="fb169c0f-3a05-42dc-8400-94b92be9cee0">
<rect x="340.0001425213459" y="200.00004002973347" width="99.99971495730826" height="39.99991994053307" rx="4" fill="#1c1c26"/>
<rect x="340.0001425213459" y="200.00004002973347" width="99.99971495730826" height="39.99991994053307" rx="4" fill="none" stroke="#7F7F7F" stroke-width="1"/>
<text x="390" y="216" text-anchor="middle" dominant-baseline="middle" fill="#0070C0" font-size="10" font-weight="600" font-family="system-ui, -apple-system, sans-serif">X2</text>
<text x="390" y="228" text-anchor="middle" dominant-baseline="middle" fill="#808090" font-size="8" font-family="system-ui, -apple-system, sans-serif">Integrator</text>
<g transform="translate(335.67, 216.00)">
	<path d="M 1.00 0.00 L 5.00 0.00 Q 6.00 0.00 6.71 0.71 L 9.29 3.29 Q 10.00 4.00 9.29 4.71 L 6.71 7.29 Q 6.00 8.00 5.00 8.00 L 1.00 8.00 Q 0.00 8.00 0.00 7.00 L 0.00 1.00 Q 0.00 0.00 1.00 0.00 Z" fill="#7F7F7F"/>
	<path d="M 0.80 0.00 L 3.79 0.00 Q 4.59 0.00 5.15 0.57 L 7.02 2.43 Q 7.59 3.00 7.02 3.57 L 5.15 5.43 Q 4.59 6.00 3.79 6.00 L 0.80 6.00 Q 0.00 6.00 0.00 5.20 L 0.00 0.80 Q 0.00 0.00 0.80 0.00 Z" fill="#1c1c26" transform="translate(1, 1)"/>
</g>
<g transform="translate(434.33, 216.00)">
	<path d="M 1.00 0.00 L 5.00 0.00 Q 6.00 0.00 6.71 0.71 L 9.29 3.29 Q 10.00 4.00 9.29 4.71 L 6.71 7.29 Q 6.00 8.00 5.00 8.00 L 1.00 8.00 Q 0.00 8.00 0.00 7.00 L 0.00 1.00 Q 0.00 0.00 1.00 0.00 Z" fill="#7F7F7F"/>
	<path d="M 0.80 0.00 L 3.79 0.00 Q 4.59 0.00 5.15 0.57 L 7.02 2.43 Q 7.59 3.00 7.02 3.57 L 5.15 5.43 Q 4.59 6.00 3.79 6.00 L 0.80 6.00 Q 0.00 6.00 0.00 5.20 L 0.00 0.80 Q 0.00 0.00 0.80 0.00 Z" fill="#1c1c26" transform="translate(1, 1)"/>
</g>
</g>
<g class="node" data-id="440919f7-c63c-40d7-8f78-67871a0f89f6">
<rect x="560.0001110791146" y="200.00004002973347" width="99.9997778417708" height="39.99991994053307" rx="4" fill="#1c1c26"/>
<rect x="560.0001110791146" y="200.00004002973347" width="99.9997778417708" height="39.99991994053307" rx="4" fill="none" stroke="#7F7F7F" stroke-width="1"/>
<text x="610" y="216" text-anchor="middle" dominant-baseline="middle" fill="#0070C0" font-size="10" font-weight="600" font-family="system-ui, -apple-system, sans-serif">X1</text>
<text x="610" y="228" text-anchor="middle" dominant-baseline="middle" fill="#808090" font-size="8" font-family="system-ui, -apple-system, sans-serif">Integrator</text>
<g transform="translate(555.67, 216.00)">
	<path d="M 1.00 0.00 L 5.00 0.00 Q 6.00 0.00 6.71 0.71 L 9.29 3.29 Q 10.00 4.00 9.29 4.71 L 6.71 7.29 Q 6.00 8.00 5.00 8.00 L 1.00 8.00 Q 0.00 8.00 0.00 7.00 L 0.00 1.00 Q 0.00 0.00 1.00 0.00 Z" fill="#7F7F7F"/>
	<path d="M 0.80 0.00 L 3.79 0.00 Q 4.59 0.00 5.15 0.57 L 7.02 2.43 Q 7.59 3.00 7.02 3.57 L 5.15 5.43 Q 4.59 6.00 3.79 6.00 L 0.80 6.00 Q 0.00 6.00 0.00 5.20 L 0.00 0.80 Q 0.00 0.00 0.80 0.00 Z" fill="#1c1c26" transform="translate(1, 1)"/>
</g>
<g transform="translate(654.33, 216.00)">
	<path d="M 1.00 0.00 L 5.00 0.00 Q 6.00 0.00 6.71 0.71 L 9.29 3.29 Q 10.00 4.00 9.29 4.71 L 6.71 7.29 Q 6.00 8.00 5.00 8.00 L 1.00 8.00 Q 0.00 8.00 0.00 7.00 L 0.00 1.00 Q 0.00 0.00 1.00 0.00 Z" fill="#7F7F7F"/>
	<path d="M 0.80 0.00 L 3.79 0.00 Q 4.59 0.00 5.15 0.57 L 7.02 2.43 Q 7.59 3.00 7.02 3.57 L 5.15 5.43 Q 4.59 6.00 3.79 6.00 L 0.80 6.00 Q 0.00 6.00 0.00 5.20 L 0.00 0.80 Q 0.00 0.00 0.80 0.00 Z" fill="#1c1c26" transform="translate(1, 1)"/>
</g>
</g>
<g class="node" data-id="03d10f15-3f0e-48f4-881b-281485faefd6">
<rect x="610.0001425213459" y="380.0000243086178" width="99.99971495730826" height="39.99995138276433" rx="4" fill="#1c1c26"/>
<rect x="610.0001425213459" y="380.0000243086178" width="99.99971495730826" height="39.99995138276433" rx="4" fill="none" stroke="#7F7F7F" stroke-width="1"/>
<text x="660" y="396" text-anchor="middle" dominant-baseline="middle" fill="#0070C0" font-size="10" font-weight="600" font-family="system-ui, -apple-system, sans-serif">Difference</text>
<text x="660" y="408" text-anchor="middle" dominant-baseline="middle" fill="#808090" font-size="8" font-family="system-ui, -apple-system, sans-serif">Adder</text>
<g transform="translate(646.00, 375.67)">
	<path d="M 1.00 0.00 L 7.00 0.00 Q 8.00 0.00 8.00 1.00 L 8.00 5.00 Q 8.00 6.00 7.29 6.71 L 4.71 9.29 Q 4.00 10.00 3.29 9.29 L 0.71 6.71 Q 0.00 6.00 0.00 5.00 L 0.00 1.00 Q 0.00 0.00 1.00 0.00 Z" fill="#7F7F7F"/>
	<path d="M 0.80 0.00 L 5.20 0.00 Q 6.00 0.00 6.00 0.80 L 6.00 3.79 Q 6.00 4.59 5.43 5.15 L 3.57 7.02 Q 3.00 7.59 2.43 7.02 L 0.57 5.15 Q 0.00 4.59 0.00 3.79 L 0.00 0.80 Q 0.00 0.00 0.80 0.00 Z" fill="#1c1c26" transform="translate(1, 1)"/>
</g>
<g transform="translate(666.00, 375.67)">
	<path d="M 1.00 0.00 L 7.00 0.00 Q 8.00 0.00 8.00 1.00 L 8.00 5.00 Q 8.00 6.00 7.29 6.71 L 4.71 9.29 Q 4.00 10.00 3.29 9.29 L 0.71 6.71 Q 0.00 6.00 0.00 5.00 L 0.00 1.00 Q 0.00 0.00 1.00 0.00 Z" fill="#7F7F7F"/>
	<path d="M 0.80 0.00 L 5.20 0.00 Q 6.00 0.00 6.00 0.80 L 6.00 3.79 Q 6.00 4.59 5.43 5.15 L 3.57 7.02 Q 3.00 7.59 2.43 7.02 L 0.57 5.15 Q 0.00 4.59 0.00 3.79 L 0.00 0.80 Q 0.00 0.00 0.80 0.00 Z" fill="#1c1c26" transform="translate(1, 1)"/>
</g>
<g transform="translate(656.00, 414.33)">
	<path d="M 1.00 0.00 L 7.00 0.00 Q 8.00 0.00 8.00 1.00 L 8.00 5.00 Q 8.00 6.00 7.29 6.71 L 4.71 9.29 Q 4.00 10.00 3.29 9.29 L 0.71 6.71 Q 0.00 6.00 0.00 5.00 L 0.00 1.00 Q 0.00 0.00 1.00 0.00 Z" fill="#7F7F7F"/>
	<path d="M 0.80 0.00 L 5.20 0.00 Q 6.00 0.00 6.00 0.80 L 6.00 3.79 Q 6.00 4.59 5.43 5.15 L 3.57 7.02 Q 3.00 7.59 2.43 7.02 L 0.57 5.15 Q 0.00 4.59 0.00 3.79 L 0.00 0.80 Q 0.00 0.00 0.80 0.00 Z" fill="#1c1c26" transform="translate(1, 1)"/>
</g>
</g>
<g class="node" data-id="9e7d89cc-bd31-4615-b34b-1b7a11850be3">
<rect x="670.0001110791146" y="270.0000573229607" width="99.9997778417708" height="39.99988535407868" rx="4" fill="#1c1c26"/>
<rect x="670.0001110791146" y="270.0000573229607" width="99.9997778417708" height="39.99988535407868" rx="4" fill="none" stroke="#7F7F7F" stroke-width="1"/>
<text x="720" y="286" text-anchor="middle" dominant-baseline="middle" fill="#0070C0" font-size="10" font-weight="600" font-family="system-ui, -apple-system, sans-serif">Square</text>
<text x="720" y="298" text-anchor="middle" dominant-baseline="middle" fill="#808090" font-size="8" font-family="system-ui, -apple-system, sans-serif">Pow</text>
<g transform="translate(716.00, 265.67)">
	<path d="M 1.00 0.00 L 7.00 0.00 Q 8.00 0.00 8.00 1.00 L 8.00 5.00 Q 8.00 6.00 7.29 6.71 L 4.71 9.29 Q 4.00 10.00 3.29 9.29 L 0.71 6.71 Q 0.00 6.00 0.00 5.00 L 0.00 1.00 Q 0.00 0.00 1.00 0.00 Z" fill="#7F7F7F"/>
	<path d="M 0.80 0.00 L 5.20 0.00 Q 6.00 0.00 6.00 0.80 L 6.00 3.79 Q 6.00 4.59 5.43 5.15 L 3.57 7.02 Q 3.00 7.59 2.43 7.02 L 0.57 5.15 Q 0.00 4.59 0.00 3.79 L 0.00 0.80 Q 0.00 0.00 0.80 0.00 Z" fill="#1c1c26" transform="translate(1, 1)"/>
</g>
<g transform="translate(716.00, 304.33)">
	<path d="M 1.00 0.00 L 7.00 0.00 Q 8.00 0.00 8.00 1.00 L 8.00 5.00 Q 8.00 6.00 7.29 6.71 L 4.71 9.29 Q 4.00 10.00 3.29 9.29 L 0.71 6.71 Q 0.00 6.00 0.00 5.00 L 0.00 1.00 Q 0.00 0.00 1.00 0.00 Z" fill="#7F7F7F"/>
	<path d="M 0.80 0.00 L 5.20 0.00 Q 6.00 0.00 6.00 0.80 L 6.00 3.79 Q 6.00 4.59 5.43 5.15 L 3.57 7.02 Q 3.00 7.59 2.43 7.02 L 0.57 5.15 Q 0.00 4.59 0.00 3.79 L 0.00 0.80 Q 0.00 0.00 0.80 0.00 Z" fill="#1c1c26" transform="translate(1, 1)"/>
</g>
</g>
<g class="node" data-id="8db3f239-5418-4068-b92c-18ee1d42c427">
<rect x="440.0001110791146" y="480.0000573229607" width="99.9997778417708" height="39.99988535407868" rx="4" fill="#1c1c26"/>
<rect x="440.0001110791146" y="480.0000573229607" width="99.9997778417708" height="39.99988535407868" rx="4" fill="none" stroke="#7F7F7F" stroke-width="1"/>
<text x="490" y="496" text-anchor="middle" dominant-baseline="middle" fill="#0070C0" font-size="10" font-weight="600" font-family="system-ui, -apple-system, sans-serif">Param-Mu</text>
<text x="490" y="508" text-anchor="middle" dominant-baseline="middle" fill="#808090" font-size="8" font-family="system-ui, -apple-system, sans-serif">Amplifier</text>
<g transform="translate(486.00, 475.67)">
	<path d="M 1.00 0.00 L 7.00 0.00 Q 8.00 0.00 8.00 1.00 L 8.00 5.00 Q 8.00 6.00 7.29 6.71 L 4.71 9.29 Q 4.00 10.00 3.29 9.29 L 0.71 6.71 Q 0.00 6.00 0.00 5.00 L 0.00 1.00 Q 0.00 0.00 1.00 0.00 Z" fill="#7F7F7F"/>
	<path d="M 0.80 0.00 L 5.20 0.00 Q 6.00 0.00 6.00 0.80 L 6.00 3.79 Q 6.00 4.59 5.43 5.15 L 3.57 7.02 Q 3.00 7.59 2.43 7.02 L 0.57 5.15 Q 0.00 4.59 0.00 3.79 L 0.00 0.80 Q 0.00 0.00 0.80 0.00 Z" fill="#1c1c26" transform="translate(1, 1)"/>
</g>
<g transform="translate(486.00, 514.33)">
	<path d="M 1.00 0.00 L 7.00 0.00 Q 8.00 0.00 8.00 1.00 L 8.00 5.00 Q 8.00 6.00 7.29 6.71 L 4.71 9.29 Q 4.00 10.00 3.29 9.29 L 0.71 6.71 Q 0.00 6.00 0.00 5.00 L 0.00 1.00 Q 0.00 0.00 1.00 0.00 Z" fill="#7F7F7F"/>
	<path d="M 0.80 0.00 L 5.20 0.00 Q 6.00 0.00 6.00 0.80 L 6.00 3.79 Q 6.00 4.59 5.43 5.15 L 3.57 7.02 Q 3.00 7.59 2.43 7.02 L 0.57 5.15 Q 0.00 4.59 0.00 3.79 L 0.00 0.80 Q 0.00 0.00 0.80 0.00 Z" fill="#1c1c26" transform="translate(1, 1)"/>
</g>
</g>
<g class="node" data-id="3c9f84cd-ee77-4232-9596-aaf057dd0254">
<rect x="550.0001425213459" y="270.0000573229607" width="99.99971495730826" height="39.99988535407868" rx="20" fill="#1c1c26"/>
<rect x="550.0001425213459" y="270.0000573229607" width="99.99971495730826" height="39.99988535407868" rx="20" fill="none" stroke="#7F7F7F" stroke-width="1"/>
<text x="600" y="286" text-anchor="middle" dominant-baseline="middle" fill="#0070C0" font-size="10" font-weight="600" font-family="system-ui, -apple-system, sans-serif">One</text>
<text x="600" y="298" text-anchor="middle" dominant-baseline="middle" fill="#808090" font-size="8" font-family="system-ui, -apple-system, sans-serif">Constant</text>
<g transform="translate(596.00, 304.33)">
	<path d="M 1.00 0.00 L 7.00 0.00 Q 8.00 0.00 8.00 1.00 L 8.00 5.00 Q 8.00 6.00 7.29 6.71 L 4.71 9.29 Q 4.00 10.00 3.29 9.29 L 0.71 6.71 Q 0.00 6.00 0.00 5.00 L 0.00 1.00 Q 0.00 0.00 1.00 0.00 Z" fill="#7F7F7F"/>
	<path d="M 0.80 0.00 L 5.20 0.00 Q 6.00 0.00 6.00 0.80 L 6.00 3.79 Q 6.00 4.59 5.43 5.15 L 3.57 7.02 Q 3.00 7.59 2.43 7.02 L 0.57 5.15 Q 0.00 4.59 0.00 3.79 L 0.00 0.80 Q 0.00 0.00 0.80 0.00 Z" fill="#1c1c26" transform="translate(1, 1)"/>
</g>
</g>
<g class="node" data-id="f94de1eb-7d85-42ab-8af5-69e0bd3cbf7d">
<rect x="440.0001110791146" y="400.0000243086178" width="99.9997778417708" height="39.99995138276433" rx="4" fill="#1c1c26"/>
<rect x="440.0001110791146" y="400.0000243086178" width="99.9997778417708" height="39.99995138276433" rx="4" fill="none" stroke="#7F7F7F" stroke-width="1"/>
<text x="490" y="416" text-anchor="middle" dominant-baseline="middle" fill="#0070C0" font-size="10" font-weight="600" font-family="system-ui, -apple-system, sans-serif">Multiplier</text>
<text x="490" y="428" text-anchor="middle" dominant-baseline="middle" fill="#808090" font-size="8" font-family="system-ui, -apple-system, sans-serif">Multiplier</text>
<g transform="translate(476.00, 395.67)">
	<path d="M 1.00 0.00 L 7.00 0.00 Q 8.00 0.00 8.00 1.00 L 8.00 5.00 Q 8.00 6.00 7.29 6.71 L 4.71 9.29 Q 4.00 10.00 3.29 9.29 L 0.71 6.71 Q 0.00 6.00 0.00 5.00 L 0.00 1.00 Q 0.00 0.00 1.00 0.00 Z" fill="#7F7F7F"/>
	<path d="M 0.80 0.00 L 5.20 0.00 Q 6.00 0.00 6.00 0.80 L 6.00 3.79 Q 6.00 4.59 5.43 5.15 L 3.57 7.02 Q 3.00 7.59 2.43 7.02 L 0.57 5.15 Q 0.00 4.59 0.00 3.79 L 0.00 0.80 Q 0.00 0.00 0.80 0.00 Z" fill="#1c1c26" transform="translate(1, 1)"/>
</g>
<g transform="translate(496.00, 395.67)">
	<path d="M 1.00 0.00 L 7.00 0.00 Q 8.00 0.00 8.00 1.00 L 8.00 5.00 Q 8.00 6.00 7.29 6.71 L 4.71 9.29 Q 4.00 10.00 3.29 9.29 L 0.71 6.71 Q 0.00 6.00 0.00 5.00 L 0.00 1.00 Q 0.00 0.00 1.00 0.00 Z" fill="#7F7F7F"/>
	<path d="M 0.80 0.00 L 5.20 0.00 Q 6.00 0.00 6.00 0.80 L 6.00 3.79 Q 6.00 4.59 5.43 5.15 L 3.57 7.02 Q 3.00 7.59 2.43 7.02 L 0.57 5.15 Q 0.00 4.59 0.00 3.79 L 0.00 0.80 Q 0.00 0.00 0.80 0.00 Z" fill="#1c1c26" transform="translate(1, 1)"/>
</g>
<g transform="translate(486.00, 434.33)">
	<path d="M 1.00 0.00 L 7.00 0.00 Q 8.00 0.00 8.00 1.00 L 8.00 5.00 Q 8.00 6.00 7.29 6.71 L 4.71 9.29 Q 4.00 10.00 3.29 9.29 L 0.71 6.71 Q 0.00 6.00 0.00 5.00 L 0.00 1.00 Q 0.00 0.00 1.00 0.00 Z" fill="#7F7F7F"/>
	<path d="M 0.80 0.00 L 5.20 0.00 Q 6.00 0.00 6.00 0.80 L 6.00 3.79 Q 6.00 4.59 5.43 5.15 L 3.57 7.02 Q 3.00 7.59 2.43 7.02 L 0.57 5.15 Q 0.00 4.59 0.00 3.79 L 0.00 0.80 Q 0.00 0.00 0.80 0.00 Z" fill="#1c1c26" transform="translate(1, 1)"/>
</g>
</g>
<g class="node" data-id="ee2391d1-5c61-45de-859b-ff98ad13f4a4">
<rect x="730.0001110791146" y="500.0000573229607" width="99.9997778417708" height="39.99988535407868" rx="4" fill="#1c1c26"/>
<rect x="730.0001110791146" y="500.0000573229607" width="99.9997778417708" height="39.99988535407868" rx="4" fill="none" stroke="#7F7F7F" stroke-width="1"/>
<text x="780" y="516" text-anchor="middle" dominant-baseline="middle" fill="#0070C0" font-size="10" font-weight="600" font-family="system-ui, -apple-system, sans-serif">Difference</text>
<text x="780" y="528" text-anchor="middle" dominant-baseline="middle" fill="#808090" font-size="8" font-family="system-ui, -apple-system, sans-serif">Adder</text>
<g transform="translate(766.00, 495.67)">
	<path d="M 1.00 0.00 L 7.00 0.00 Q 8.00 0.00 8.00 1.00 L 8.00 5.00 Q 8.00 6.00 7.29 6.71 L 4.71 9.29 Q 4.00 10.00 3.29 9.29 L 0.71 6.71 Q 0.00 6.00 0.00 5.00 L 0.00 1.00 Q 0.00 0.00 1.00 0.00 Z" fill="#7F7F7F"/>
	<path d="M 0.80 0.00 L 5.20 0.00 Q 6.00 0.00 6.00 0.80 L 6.00 3.79 Q 6.00 4.59 5.43 5.15 L 3.57 7.02 Q 3.00 7.59 2.43 7.02 L 0.57 5.15 Q 0.00 4.59 0.00 3.79 L 0.00 0.80 Q 0.00 0.00 0.80 0.00 Z" fill="#1c1c26" transform="translate(1, 1)"/>
</g>
<g transform="translate(786.00, 495.67)">
	<path d="M 1.00 0.00 L 7.00 0.00 Q 8.00 0.00 8.00 1.00 L 8.00 5.00 Q 8.00 6.00 7.29 6.71 L 4.71 9.29 Q 4.00 10.00 3.29 9.29 L 0.71 6.71 Q 0.00 6.00 0.00 5.00 L 0.00 1.00 Q 0.00 0.00 1.00 0.00 Z" fill="#7F7F7F"/>
	<path d="M 0.80 0.00 L 5.20 0.00 Q 6.00 0.00 6.00 0.80 L 6.00 3.79 Q 6.00 4.59 5.43 5.15 L 3.57 7.02 Q 3.00 7.59 2.43 7.02 L 0.57 5.15 Q 0.00 4.59 0.00 3.79 L 0.00 0.80 Q 0.00 0.00 0.80 0.00 Z" fill="#1c1c26" transform="translate(1, 1)"/>
</g>
<g transform="translate(776.00, 534.33)">
	<path d="M 1.00 0.00 L 7.00 0.00 Q 8.00 0.00 8.00 1.00 L 8.00 5.00 Q 8.00 6.00 7.29 6.71 L 4.71 9.29 Q 4.00 10.00 3.29 9.29 L 0.71 6.71 Q 0.00 6.00 0.00 5.00 L 0.00 1.00 Q 0.00 0.00 1.00 0.00 Z" fill="#7F7F7F"/>
	<path d="M 0.80 0.00 L 5.20 0.00 Q 6.00 0.00 6.00 0.80 L 6.00 3.79 Q 6.00 4.59 5.43 5.15 L 3.57 7.02 Q 3.00 7.59 2.43 7.02 L 0.57 5.15 Q 0.00 4.59 0.00 3.79 L 0.00 0.80 Q 0.00 0.00 0.80 0.00 Z" fill="#1c1c26" transform="translate(1, 1)"/>
</g>
</g>
<g class="node" data-id="34e172de-4aa4-4f33-9844-f78184aa1a19">
<rect x="670.0001110791146" y="120.00004946240284" width="99.9997778417708" height="39.99990107519431" rx="20" fill="#1c1c26"/>
<rect x="670.0001110791146" y="120.00004946240284" width="99.9997778417708" height="39.99990107519431" rx="20" fill="none" stroke="#7F7F7F" stroke-width="1"/>
<text x="720" y="136" text-anchor="middle" dominant-baseline="middle" fill="#0070C0" font-size="10" font-weight="600" font-family="system-ui, -apple-system, sans-serif">X1(t)</text>
<text x="720" y="148" text-anchor="middle" dominant-baseline="middle" fill="#808090" font-size="8" font-family="system-ui, -apple-system, sans-serif">Scope</text>
<g transform="translate(716.00, 154.33)">
	<path d="M 4.71 0.71 L 7.29 3.29 Q 8.00 4.00 8.00 5.00 L 8.00 9.00 Q 8.00 10.00 7.00 10.00 L 1.00 10.00 Q 0.00 10.00 0.00 9.00 L 0.00 5.00 Q 0.00 4.00 0.71 3.29 L 3.29 0.71 Q 4.00 0.00 4.71 0.71 Z" fill="#7F7F7F"/>
	<path d="M 3.57 0.98 L 5.43 2.85 Q 6.00 3.41 6.00 4.21 L 6.00 7.20 Q 6.00 8.00 5.20 8.00 L 0.80 8.00 Q 0.00 8.00 0.00 7.20 L 0.00 4.21 Q 0.00 3.41 0.57 2.85 L 2.43 0.98 Q 3.00 0.41 3.57 0.98 Z" fill="#1c1c26" transform="translate(1, 1)"/>
</g>
</g>
<g class="node" data-id="b2b48c31-985f-4917-bef9-6dcecdc2e928">
<rect x="430.0001425213459" y="120.00004946240284" width="99.99971495730826" height="39.99990107519431" rx="20" fill="#1c1c26"/>
<rect x="430.0001425213459" y="120.00004946240284" width="99.99971495730826" height="39.99990107519431" rx="20" fill="none" stroke="#7F7F7F" stroke-width="1"/>
<text x="480" y="136" text-anchor="middle" dominant-baseline="middle" fill="#0070C0" font-size="10" font-weight="600" font-family="system-ui, -apple-system, sans-serif">X2(t)</text>
<text x="480" y="148" text-anchor="middle" dominant-baseline="middle" fill="#808090" font-size="8" font-family="system-ui, -apple-system, sans-serif">Scope</text>
<g transform="translate(476.00, 154.33)">
	<path d="M 4.71 0.71 L 7.29 3.29 Q 8.00 4.00 8.00 5.00 L 8.00 9.00 Q 8.00 10.00 7.00 10.00 L 1.00 10.00 Q 0.00 10.00 0.00 9.00 L 0.00 5.00 Q 0.00 4.00 0.71 3.29 L 3.29 0.71 Q 4.00 0.00 4.71 0.71 Z" fill="#7F7F7F"/>
	<path d="M 3.57 0.98 L 5.43 2.85 Q 6.00 3.41 6.00 4.21 L 6.00 7.20 Q 6.00 8.00 5.20 8.00 L 0.80 8.00 Q 0.00 8.00 0.00 7.20 L 0.00 4.21 Q 0.00 3.41 0.57 2.85 L 2.43 0.98 Q 3.00 0.41 3.57 0.98 Z" fill="#1c1c26" transform="translate(1, 1)"/>
</g>
</g>
</g>
</svg>